<svg width="40" height="39" viewBox="0 0 40 39" fill="none" xmlns="http://www.w3.org/2000/svg">
<path d="M38.9014 32.7587L28.9862 23.0917C30.413 20.794 31.25 18.1108 31.25 15.2344C31.25 6.83406 24.2407 0 15.625 0C7.00929 0 0 6.83406 0 15.2344C0 23.6347 7.00929 30.4688 15.625 30.4688C18.5751 30.4688 21.3269 29.6529 23.6834 28.2618L33.5986 37.9288C34.3311 38.643 35.2905 39 36.25 39C37.2094 39 38.1689 38.6429 38.9014 37.9288C40.3662 36.5012 40.3662 34.1863 38.9014 32.7587ZM5 15.2344C5 9.52209 9.76687 4.875 15.625 4.875C21.4831 4.875 26.25 9.52209 26.25 15.2344C26.25 20.9467 21.4831 25.5938 15.625 25.5938C9.76687 25.5938 5 20.9467 5 15.2344Z" fill="white"/>
</svg>
