<svg width="475" height="448" viewBox="0 0 475 448" fill="none" xmlns="http://www.w3.org/2000/svg">
<g clip-path="url(#clip0_1_2905)">
<path d="M45.7 368.1H28.5V407.8H45.7V368.1Z" fill="#EBEBEB"/>
<path d="M104.2 368.1H87V407.8H104.2V368.1Z" fill="#EBEBEB"/>
<path d="M75 332H57.8V407.8H75V332Z" fill="#F5F5F5"/>
<path d="M133.4 332H116.2V407.8H133.4V332Z" fill="#F5F5F5"/>
<path d="M162.6 334.2H145.4V407.9H162.6V334.2Z" fill="#EBEBEB"/>
<path d="M221.1 334.2H203.9V407.9H221.1V334.2Z" fill="#EBEBEB"/>
<path d="M279.6 334.2H262.4V407.9H279.6V334.2Z" fill="#EBEBEB"/>
<path d="M191.9 295.5H174.7V407.8H191.9V295.5Z" fill="#F5F5F5"/>
<path d="M250.3 306.5H233.1V407.8H250.3V306.5Z" fill="#F5F5F5"/>
<path d="M365.9 334.2H348.7V407.9H365.9V334.2Z" fill="#EBEBEB"/>
<path d="M336.7 348.3H319.5V407.8H336.7V348.3Z" fill="#F5F5F5"/>
<path d="M427 294.9H409.8V407.9H427V294.9Z" fill="#EBEBEB"/>
<path d="M397.8 348.3H380.6V407.8H397.8V348.3Z" fill="#F5F5F5"/>
<path d="M456.3 348.3H439.1V407.8H456.3V348.3Z" fill="#F5F5F5"/>
<path d="M308.8 322H291.6V407.8H308.8V322Z" fill="#EBEBEB"/>
<path d="M186.3 295.5C186.3 297.9 184.3 299.9 181.9 299.9C179.5 299.9 177.5 297.9 177.5 295.5C177.5 293.1 179.5 291.1 181.9 291.1C184.3 291.1 186.3 293.1 186.3 295.5Z" fill="#E0E0E0"/>
<path d="M181.9 303.6C177.5 303.6 173.9 300 173.9 295.6C173.9 291.2 177.5 287.6 181.9 287.6C186.3 287.6 189.9 291.2 189.9 295.6C189.9 300 186.3 303.6 181.9 303.6ZM181.9 288.1C177.8 288.1 174.5 291.4 174.5 295.5C174.5 299.6 177.8 302.9 181.9 302.9C186 302.9 189.3 299.6 189.3 295.5C189.3 291.4 186 288.1 181.9 288.1Z" fill="#E0E0E0"/>
<path d="M185.4 284.2L185.2 275.5H187.4L183.3 270.6L179.2 275.6H181.5L181.7 284.2H185.4Z" fill="#EBEBEB"/>
<path d="M42.1 350C42.1 352.4 40.1 354.4 37.7 354.4C35.3 354.4 33.3 352.4 33.3 350C33.3 347.6 35.3 345.6 37.7 345.6C40.1 345.6 42.1 347.6 42.1 350Z" fill="#E0E0E0"/>
<path d="M37.6 358.2C33.2 358.2 29.6 354.6 29.6 350.2C29.6 345.8 33.2 342.2 37.6 342.2C42 342.2 45.6 345.8 45.6 350.2C45.7 354.6 42.1 358.2 37.6 358.2ZM37.6 342.8C33.5 342.8 30.2 346.1 30.2 350.2C30.2 354.3 33.5 357.6 37.6 357.6C41.7 357.6 45 354.3 45 350.2C45 346.1 41.7 342.8 37.6 342.8Z" fill="#E0E0E0"/>
<path d="M35 322.5L35.2 331.6H32.9L37.2 336.7L41.4 331.5H39L38.8 322.6L35 322.5Z" fill="#EBEBEB"/>
<path d="M269.4 303.6L269.6 312.6H267.4L271.6 317.8L275.8 312.5H273.5L273.3 303.6H269.4Z" fill="#EBEBEB"/>
<path d="M322.8 383.9L270.9 335.2C238 319.3 187.3 295.9 181.3 296.3C174.7 296.7 48.8 346.3 0.9 365.4L0 363C7.1 360.2 172.8 294.2 181.2 293.7C181.3 293.7 181.3 293.7 181.4 293.7C190.6 293.7 263.8 328.9 272.2 333L272.5 333.2L323.2 380.8C332.8 375.7 388 346.6 388.9 346.2C389.2 346.1 390.1 345.7 465.9 345.7V348.2C436.8 348.2 393.1 348.3 389.8 348.5C386.9 350 345.5 371.8 323.6 383.4L322.8 383.9Z" fill="#E0E0E0"/>
<path d="M276 333.1C276 335.5 274 337.5 271.6 337.5C269.2 337.5 267.2 335.5 267.2 333.1C267.2 330.7 269.2 328.7 271.6 328.7C274.1 328.7 276 330.6 276 333.1Z" fill="#E0E0E0"/>
<path d="M271.6 341.3C267.2 341.3 263.6 337.7 263.6 333.3C263.6 328.9 267.2 325.3 271.6 325.3C276 325.3 279.6 328.9 279.6 333.3C279.7 337.7 276 341.3 271.6 341.3ZM271.6 325.9C267.5 325.9 264.2 329.2 264.2 333.3C264.2 337.4 267.5 340.7 271.6 340.7C275.7 340.7 279 337.4 279 333.3C279 329.2 275.7 325.9 271.6 325.9Z" fill="#E0E0E0"/>
<path d="M393.8 346.3C393.8 348.7 391.8 350.7 389.4 350.7C387 350.7 385 348.7 385 346.3C385 343.9 387 341.9 389.4 341.9C391.9 341.9 393.8 343.9 393.8 346.3Z" fill="#E0E0E0"/>
<path d="M389.4 354.5C385 354.5 381.4 350.9 381.4 346.5C381.4 342.1 385 338.5 389.4 338.5C393.8 338.5 397.4 342.1 397.4 346.5C397.5 350.9 393.8 354.5 389.4 354.5ZM389.4 339.1C385.3 339.1 382 342.4 382 346.5C382 350.6 385.3 353.9 389.4 353.9C393.5 353.9 396.8 350.6 396.8 346.5C396.8 342.4 393.5 339.1 389.4 339.1Z" fill="#E0E0E0"/>
<path d="M387 320L387.3 329H385L389.2 334.2L393.4 329L391.1 328.9L390.9 320H387Z" fill="#EBEBEB"/>
<path d="M394.9 236.4C394.6 214.9 411.7 197.2 433 196.8C454.4 196.5 472 213.6 472.4 235.1C472.7 256.6 455.6 274.3 434.3 274.7C412.9 275.1 395.2 257.9 394.9 236.4ZM452.2 235.5C452 225.2 443.6 217 433.4 217.2C423.2 217.4 415 225.9 415.2 236.1C415.4 246.4 423.8 254.6 434 254.4C444.2 254.2 452.4 245.8 452.2 235.5Z" fill="#F5F5F5"/>
<path d="M394.9 236.4C394.6 214.9 411.7 197.2 433 196.8L433.3 217.1C423.1 217.3 414.9 225.8 415.1 236C415.3 246.3 423.7 254.5 433.9 254.3L434.2 274.6C412.9 275.1 395.2 257.9 394.9 236.4Z" fill="#E0E0E0"/>
<path d="M429.6 193.7C454.6 193.3 474.6 212.7 475 237.8L451.3 238.2C451.1 226.2 442 218.6 430 218.8L429.6 193.7Z" fill="#EBEBEB"/>
<path d="M111.4 9.09998H93.9V63.6H111.4V9.09998Z" fill="#EBEBEB"/>
<path d="M137.5 21.5H120V63.6H137.5V21.5Z" fill="#EBEBEB"/>
<path d="M161.6 38.6H144.1V63.6H161.6V38.6Z" fill="#EBEBEB"/>
<path d="M311.7 42.1V11.5C328.5 11.5 342.3 25.3 342.3 42.1C342.3 58.9 328.5 72.7 311.7 72.7C295.2 72.7 281.5 59.3 281.1 42.8L311.7 42.1Z" fill="#EBEBEB"/>
<path d="M306 30.6L275.4 31.3C275.4 23.3 278.5 15 284.1 9.29998C289.7 3.59998 297.6 0.299976 305.5 0.0999756L306 30.6Z" fill="#F5F5F5"/>
<path d="M37 212L58.4 195C67.7 206.7 65.7 224.1 54 233.4C42.3 242.7 24.9 240.7 15.6 229C6.3 217.3 8.3 199.9 20 190.6C21.9 189.1 23.9 187.9 26.1 186.9L37 212Z" fill="#F5F5F5"/>
<path d="M31.2 184.1L38.7 203.9L54.6 190.4C54.7 190.4 46.2 181.7 31.2 184.1Z" fill="#E0E0E0"/>
<path d="M446.5 432.8C446.5 432.9 352.4 433.1 236.4 433.1C120.4 433.1 26.3 433 26.3 432.8C26.3 432.7 120.3 432.5 236.4 432.5C352.4 432.6 446.5 432.7 446.5 432.8Z" fill="#263238"/>
<path d="M54.3 75.8C50.2 66.2 39 61.8 29.4 66C19.8 70.2 15.5 81.3 19.6 90.9C22.6 97.8 29.3 102 36.4 102.2C37.3 104.3 38.3 106.6 38.3 106.6L53.5 100C53.5 100 52.5 97.5 51.6 95.3C56 90 57.3 82.5 54.3 75.8Z" fill="#D4B2D6"/>
<path d="M48 102.3C48 102.3 48 102.2 47.9 102.1C47.9 101.9 47.8 101.7 47.7 101.4C47.5 100.8 47.3 100 47 98.9C46.7 97.8 46.4 96.4 46 94.8C45.7 93.2 45.4 91.4 45.5 89.3C45.5 88.3 45.6 87.2 45.8 86.1C45.9 85.6 46.1 85 46.5 84.5C46.9 84 47.5 83.8 48.2 83.8C48.5 83.8 48.8 84 49 84.2C49.2 84.4 49.3 84.8 49.3 85.1C49.3 85.8 48.9 86.4 48.5 86.8C47.5 87.7 46.2 88.2 44.8 88.1C43.4 88 42 87.4 41.1 86.3C40.6 85.8 40.2 85.1 40.1 84.3C40 83.6 40.4 82.7 41.1 82.4C41.5 82.3 41.9 82.4 42.2 82.6C42.5 82.8 42.7 83.2 42.8 83.6C42.9 84.4 42.7 85.2 42.3 85.9C41.6 87.3 40.3 88.4 38.8 88.8C37.2 89.2 35.5 88.8 34.4 87.8C33.8 87.3 33.4 86.5 33.4 85.8C33.4 85.4 33.5 85 33.8 84.7C34.1 84.4 34.5 84.3 34.9 84.3C35.3 84.3 35.7 84.5 36 84.7C36.3 84.9 36.5 85.3 36.7 85.6C37 86.3 37.2 87 37.3 87.7C37.4 89.1 37 90.6 36.1 91.7C35.2 92.8 34 93.5 32.7 93.8C32.1 93.9 31.4 94 30.8 93.7C30.2 93.4 29.8 92.7 30 92.1C30.1 91.8 30.3 91.5 30.6 91.4C30.9 91.3 31.2 91.2 31.5 91.2C32.1 91.2 32.6 91.6 33.1 91.9C33.9 92.6 34.7 93.4 35.4 94.1C38.3 97 40.5 99.4 42.1 101.1C42.9 102 43.4 102.6 43.8 103.1C44 103.3 44.1 103.5 44.2 103.6C44.3 103.7 44.3 103.8 44.3 103.8C44.3 103.8 44.2 103.7 44.1 103.6C44 103.5 43.8 103.3 43.6 103.1C43.2 102.6 42.6 102 41.8 101.1C40.3 99.4 38 97 35.1 94.1C34.4 93.4 33.6 92.6 32.8 91.9C32.4 91.6 31.9 91.2 31.3 91.2C30.8 91.2 30.1 91.4 30 92C29.8 92.5 30.2 93.1 30.7 93.4C31.2 93.7 31.9 93.6 32.5 93.5C33.7 93.3 34.9 92.6 35.7 91.5C36.5 90.5 36.9 89.1 36.8 87.7C36.7 87 36.6 86.3 36.2 85.7C35.9 85.1 35.3 84.5 34.6 84.5C34.3 84.5 33.9 84.6 33.7 84.8C33.4 85 33.3 85.4 33.3 85.7C33.3 86.4 33.7 87.1 34.3 87.6C35.4 88.6 37.1 89 38.5 88.6C40 88.2 41.2 87.1 41.9 85.8C42.2 85.1 42.5 84.4 42.3 83.7C42.2 83.4 42 83 41.8 82.8C41.5 82.6 41.2 82.5 40.9 82.6C40.6 82.7 40.3 83 40.2 83.3C40 83.6 40 84 40 84.3C40.1 85 40.5 85.6 40.9 86.1C41.8 87.2 43.1 87.8 44.4 87.9C45.7 88 47 87.5 48 86.7C48.4 86.3 48.8 85.7 48.8 85.1C48.8 84.5 48.4 84 47.8 83.9C47.2 83.8 46.7 84.1 46.3 84.5C45.9 84.9 45.7 85.5 45.6 86C45.4 87.1 45.3 88.2 45.3 89.2C45.3 91.2 45.5 93.1 45.8 94.7C46.1 96.3 46.4 97.7 46.7 98.8C47 99.9 47.2 100.8 47.4 101.3C47.5 101.6 47.5 101.8 47.6 102C48 102.2 48 102.3 48 102.3Z" fill="#263238"/>
<path d="M53.6 103.3L40.6 109C40.1 109.2 39.4 109 39.2 108.4C39 107.9 39.2 107.2 39.8 107L52.8 101.3C53.3 101.1 54 101.3 54.2 101.9C54.4 102.4 54.2 103.1 53.6 103.3Z" fill="#263238"/>
<path d="M54 104.1L41 109.8C40.5 110 40.2 110.7 40.4 111.2C40.6 111.7 41.3 112 41.8 111.8L43.2 111.2L46.7 114C47.1 114.3 47.6 114.4 48.1 114.2L52.8 112.2C53.3 112 53.6 111.5 53.6 111L53.9 106.6L54.9 106.2C55.4 106 55.7 105.3 55.5 104.8C55.2 104.2 54.5 103.9 54 104.1Z" fill="#263238"/>
<g opacity="0.2">
<path d="M21.1 77.2C21.8 75.6 22.7 74.3 23.6 73.4C24.5 72.4 25.3 71.8 25.9 71.5C26.5 71.1 26.9 71 27 71.2C27.2 71.5 26.1 72.5 24.8 74.5C23.5 76.4 22.2 79.4 22.1 82.9C22 86.3 23.2 89.4 24.4 91.4C25.6 93.4 26.6 94.5 26.4 94.8C26.3 94.9 25.9 94.8 25.3 94.4C24.7 94 23.9 93.3 23.1 92.4C22.3 91.4 21.4 90.1 20.8 88.5C20.2 86.9 19.8 85 19.8 83" fill="white"/>
</g>
<g opacity="0.2">
<path d="M31.5 70C30.4 70.5 29.3 70.6 28.9 70.1C28.7 69.8 28.8 69.4 29.1 69C29.4 68.6 29.9 68.2 30.6 67.9C31.3 67.6 31.9 67.5 32.4 67.6C32.9 67.7 33.2 67.9 33.3 68.2" fill="white"/>
</g>
<path d="M53.5 111.4C53.5 111.4 53.1 111.4 52.5 111.5C51.9 111.6 51 111.8 50.2 112.2C49.3 112.6 48.6 113.1 48.2 113.6C47.7 114 47.5 114.3 47.5 114.3C47.5 114.3 47.7 113.9 48.1 113.5C48.5 113 49.2 112.5 50.1 112C51 111.6 51.9 111.4 52.5 111.4C53.1 111.3 53.5 111.3 53.5 111.4Z" fill="#455A64"/>
<path d="M53.9 106.6C53.9 106.7 51.6 107.7 48.7 109C45.8 110.3 43.4 111.3 43.4 111.2C43.4 111.1 45.7 110.1 48.6 108.8C51.5 107.5 53.9 106.5 53.9 106.6Z" fill="#455A64"/>
<path d="M53.8 108.5C53.8 108.5 53.3 108.8 52.6 109.2C51.8 109.6 50.7 110.1 49.5 110.7C48.3 111.2 47.2 111.7 46.4 112C45.6 112.3 45.1 112.5 45.1 112.5C45.1 112.5 45.6 112.2 46.4 111.9C47.3 111.5 48.3 111 49.5 110.5C50.7 110 51.7 109.5 52.6 109.1C53.3 108.6 53.8 108.4 53.8 108.5Z" fill="#455A64"/>
<path d="M277.3 277.9H200.7C197.8 277.9 195.4 275.5 195.4 272.6V225.7C195.4 222.8 197.8 220.4 200.7 220.4H277.3C280.2 220.4 282.6 222.8 282.6 225.7V272.6C282.6 275.5 280.2 277.9 277.3 277.9Z" fill="white"/>
<path d="M277.3 277.9C277.3 277.9 277.5 277.9 278 277.8C278.5 277.7 279.2 277.6 280 277.1C280.8 276.6 281.7 275.8 282.2 274.5C282.8 273.2 282.5 271.6 282.6 269.9C282.6 262.8 282.6 252.5 282.5 239.9C282.5 236.7 282.5 233.4 282.5 229.9C282.5 229 282.5 228.2 282.5 227.3C282.5 226.4 282.6 225.5 282.4 224.7C282.1 223 280.8 221.5 279.1 220.9C278.3 220.6 277.3 220.6 276.4 220.6C275.5 220.6 274.5 220.6 273.5 220.6C271.6 220.6 269.6 220.6 267.6 220.6C263.6 220.6 259.5 220.6 255.3 220.6C238.5 220.6 220.1 220.6 200.7 220.6C199.5 220.6 198.4 221 197.5 221.7C196.6 222.4 196 223.5 195.7 224.6C195.6 225.2 195.6 225.7 195.6 226.3V228.1C195.6 229.3 195.6 230.5 195.6 231.6C195.6 236.3 195.6 241 195.6 245.5C195.6 254.6 195.6 263.4 195.6 271.8C195.6 272.9 195.7 273.8 196.1 274.7C196.5 275.6 197.2 276.3 198.1 276.8C198.9 277.3 199.9 277.5 200.9 277.5C201.9 277.5 202.9 277.5 203.9 277.5C207.9 277.5 211.7 277.5 215.5 277.5C223 277.5 229.9 277.5 236.2 277.5C248.9 277.5 259.1 277.6 266.2 277.6C269.7 277.6 272.5 277.6 274.4 277.6C275.3 277.6 276 277.6 276.5 277.6C277 277.8 277.3 277.9 277.3 277.9C277.3 277.9 277.1 277.9 276.6 277.9C276.1 277.9 275.4 277.9 274.5 277.9C272.6 277.9 269.9 277.9 266.3 277.9C259.2 277.9 248.9 277.9 236.3 278C230 278 223 278 215.6 278C211.9 278 208 278 204 278C203 278 202 278 201 278C200 278 198.9 277.8 198 277.2C197.1 276.7 196.3 275.9 195.8 274.9C195.3 274 195.2 272.8 195.2 271.8C195.2 263.4 195.2 254.6 195.2 245.5C195.2 240.9 195.2 236.3 195.2 231.6C195.2 230.4 195.2 229.2 195.2 228.1V226.3C195.2 225.7 195.2 225.1 195.3 224.5C195.6 223.3 196.3 222.2 197.2 221.4C198.2 220.6 199.4 220.2 200.7 220.2C220.1 220.2 238.5 220.2 255.3 220.2C259.5 220.2 263.6 220.2 267.6 220.2C269.6 220.2 271.5 220.2 273.5 220.2C274.5 220.2 275.4 220.2 276.4 220.2C277.3 220.2 278.3 220.2 279.3 220.5C281.1 221.1 282.5 222.8 282.9 224.6C283.1 225.5 283 226.4 283 227.3C283 228.2 283 229.1 283 229.9C283 233.4 283 236.7 283 239.9C283 252.6 282.9 262.8 282.9 269.9C282.9 270.8 282.9 271.6 282.9 272.4C282.9 273.2 282.8 273.9 282.5 274.6C282 275.9 281.1 276.7 280.3 277.2C279.5 277.7 278.8 277.8 278.3 277.9C277.5 277.9 277.3 277.9 277.3 277.9Z" fill="#263238"/>
<path d="M237.7 253.7H234.4V267H237.7V253.7Z" fill="#D4B2D6"/>
<path d="M209.8 251.8H206.5V267.1H209.8V251.8Z" fill="#D4B2D6"/>
<path d="M216.8 248.6H213.5V267H216.8V248.6Z" fill="#D4B2D6"/>
<path d="M223.7 249.6H220.4V267H223.7V249.6Z" fill="#D4B2D6"/>
<path d="M230.7 243.7H227.4V267H230.7V243.7Z" fill="#D4B2D6"/>
<path d="M244.7 243.9H241.4V267.1H244.7V243.9Z" fill="#D4B2D6"/>
<path d="M251.7 251.5H248.4V267.1H251.7V251.5Z" fill="#D4B2D6"/>
<path d="M258.7 244.9H255.4V267.1H258.7V244.9Z" fill="#D4B2D6"/>
<path d="M265.7 239.9H262.4V267.1H265.7V239.9Z" fill="#D4B2D6"/>
<path d="M272.7 244.8H269.4V267.1H272.7V244.8Z" fill="#D4B2D6"/>
<path d="M231.3 231.6C231.3 231.7 225.4 231.9 218 231.9C210.7 231.9 204.7 231.8 204.7 231.6C204.7 231.4 210.6 231.3 218 231.3C225.3 231.4 231.3 231.5 231.3 231.6Z" fill="#263238"/>
<path d="M417.2 52.7H459.1C461.2 52.7 462.9 54.4 462.9 56.5V98.4C462.9 100.5 461.2 102.2 459.1 102.2H430.1L418.4 111.8V102.2H417.1C415 102.2 413.3 100.5 413.3 98.4V56.5C413.4 54.4 415.1 52.7 417.2 52.7Z" fill="white"/>
<path d="M413.4 68.4H463V57.4C463 54.8 460.9 52.7 458.3 52.7H418C415.4 52.7 413.4 54.7999 413.4 57.2999V68.4Z" fill="#D4B2D6"/>
<path d="M434.9 74.7V91.5H431V77.8H427.6V74.7H434.9Z" fill="#263238"/>
<path d="M451 74.7V77.2L444.7 91.5H440.5L446.5 77.8H441V80.5H437.5V74.6H451V74.7Z" fill="#263238"/>
<path d="M431.3 61.6C431.3 61.7 434.7 61.8 438.9 61.8C443.1 61.8 446.5 61.7 446.5 61.6C446.5 61.5 443.1 61.4 438.9 61.4C434.7 61.4 431.3 61.5 431.3 61.6Z" fill="#263238"/>
<path d="M417.2 52.7C417.2 52.7 417.1 52.7 416.9 52.7C416.7 52.7 416.5 52.6999 416.1 52.7999C415.5 52.9999 414.5 53.3999 413.8 54.5999C413.5 55.1999 413.2 55.9 413.3 56.7C413.3 57.5 413.3 58.3999 413.3 59.2999C413.3 61.1999 413.3 63.4 413.3 65.8C413.3 70.6 413.3 76.4999 413.3 83.1999C413.3 86.5999 413.3 90.1 413.3 93.9C413.3 94.8 413.3 95.8 413.3 96.8C413.3 97.3 413.3 97.8 413.3 98.3C413.3 98.8 413.3 99.3 413.5 99.8C413.8 100.8 414.5 101.6 415.5 102.1C416 102.3 416.5 102.5 417 102.5C417.5 102.5 418 102.5 418.5 102.5L418.4 102.4C418.4 105.4 418.4 108.7 418.4 112V112.3L418.6 112.1C422.3 109 426.2 105.8 430.3 102.5H430.2C437.4 102.5 444.9 102.5 452.7 102.5C454.5 102.5 456.2 102.5 458 102.5H459.3C459.8 102.5 460.2 102.4 460.6 102.3C461.4 102 462.2 101.4 462.6 100.6C462.8 100.2 463 99.8 463.1 99.4C463.2 99 463.2 98.5 463.2 98.0999C463.2 97.1999 463.2 96.4 463.2 95.5C463.2 93.7999 463.2 92.0999 463.2 90.5C463.2 83.7999 463.2 77.4 463.2 71.3C463.2 68.2 463.2 65.3 463.2 62.4C463.2 60.9 463.2 59.4999 463.2 58.0999C463.2 57.3999 463.2 56.7 463.1 56C463 55.3 462.6 54.5999 462.2 54.0999C461.7 53.5999 461.1 53.2 460.5 53C459.8 52.8 459.1 52.7999 458.5 52.7999C457.2 52.7999 455.9 52.7999 454.6 52.7999C452.1 52.7999 449.6 52.7999 447.3 52.7999C438 52.7999 430.6 52.8 425.4 52.9C422.8 52.9 420.8 52.9 419.4 52.9C418.7 52.9 418.2 52.9 417.8 52.9C417.4 52.7 417.2 52.7 417.2 52.7C417.2 52.7 417.4 52.7 417.7 52.7C418.1 52.7 418.6 52.7 419.3 52.7C420.7 52.7 422.7 52.7 425.3 52.7C430.5 52.7 438 52.6999 447.2 52.7999C449.5 52.7999 451.9 52.7999 454.5 52.7999C455.8 52.7999 457.1 52.7999 458.4 52.7999C459.1 52.7999 459.7 52.8 460.3 53C460.9 53.2 461.5 53.5999 461.9 54.0999C462.3 54.5999 462.6 55.2 462.8 55.9C462.9 56.5 462.9 57.3 462.9 58C462.9 59.4 462.9 60.7999 462.9 62.2999C462.9 65.1999 462.9 68.1999 462.9 71.1999C462.9 77.2999 462.9 83.8 462.9 90.4C462.9 92.1 462.9 93.7 462.9 95.4C462.9 96.2 462.9 97.0999 462.9 98C462.9 98.4 462.9 98.7999 462.8 99.1999C462.7 99.5999 462.6 100 462.3 100.3C461.9 101 461.2 101.6 460.4 101.9C459.6 102.2 458.8 102.1 457.9 102.1C456.2 102.1 454.4 102.1 452.6 102.1C444.9 102.1 437.3 102.1 430.1 102.1H430C426 105.4 422.1 108.6 418.3 111.7L418.5 111.8C418.5 108.5 418.5 105.2 418.5 102.2V102.1H418.4C417.9 102.1 417.4 102.1 416.9 102.1C416.4 102.1 415.9 101.9 415.5 101.7C414.6 101.3 414 100.5 413.7 99.5999C413.5 99.0999 413.5 98.6999 413.5 98.1999C413.5 97.6999 413.5 97.1999 413.5 96.6999C413.5 95.6999 413.5 94.8 413.5 93.8C413.5 90 413.5 86.5 413.5 83.0999C413.5 76.3999 413.5 70.4999 413.5 65.6999C413.5 63.2999 413.5 61.1 413.5 59.2C413.6 57.3 413.3 55.6 414 54.5C414.7 53.4 415.6 52.9 416.3 52.7C416.9 52.7 417.2 52.7 417.2 52.7Z" fill="#263238"/>
<path d="M430.8 59H430.9C431.8 59 432.5 58.3 432.5 57.4V49.2999C432.5 48.3999 431.8 47.7 430.9 47.7H430.8C429.9 47.7 429.2 48.3999 429.2 49.2999V57.4C429.2 58.4 429.9 59 430.8 59Z" fill="#E0E0E0"/>
<path d="M430.8 59C430.8 59 430.4 59 429.9 58.6C429.7 58.4 429.4 58.1 429.4 57.6C429.4 57.2 429.4 56.6 429.4 56C429.4 54.8 429.4 53.4 429.4 51.8C429.4 51 429.4 50.2 429.4 49.3C429.4 48.9 429.5 48.5 429.8 48.2C430.1 47.9 430.5 47.8 430.9 47.8C431.3 47.8 431.7 48 432 48.3C432.3 48.6 432.4 49 432.3 49.4C432.3 50.3 432.3 51.1 432.3 51.9C432.3 53.5 432.3 54.9 432.3 56.1C432.3 56.4 432.3 56.7 432.3 56.9C432.3 57.2 432.3 57.4 432.3 57.6C432.2 58 432 58.4 431.7 58.5C431.2 59.1 430.8 59 430.8 59C430.8 59 430.9 59 431.1 59C431.3 59 431.5 58.9 431.8 58.8C432.1 58.6 432.4 58.3 432.5 57.8C432.6 57.6 432.5 57.3 432.5 57C432.5 56.7 432.5 56.5 432.5 56.2C432.5 55 432.5 53.6 432.5 52C432.5 51.2 432.5 50.4 432.5 49.5C432.5 49.1 432.4 48.5 432.1 48.2C431.8 47.8 431.3 47.6 430.8 47.6C430.3 47.6 429.8 47.8 429.5 48.1C429.2 48.4 429 48.9 429 49.4C429 50.2 429 51.1 429 51.9C429 53.5 429 54.9 429 56.1C429 56.7 429 57.2 429 57.7C429.1 58.2 429.4 58.6 429.6 58.8C429.9 59 430.1 59.1 430.3 59.1C430.7 59.1 430.8 59.1 430.8 59Z" fill="#263238"/>
<path d="M445.9 59H446C446.9 59 447.6 58.3 447.6 57.4V49.2999C447.6 48.3999 446.9 47.7 446 47.7H445.9C445 47.7 444.3 48.3999 444.3 49.2999V57.4C444.4 58.4 445.1 59 445.9 59Z" fill="#E0E0E0"/>
<path d="M445.9 59C445.9 59 445.5 59 445 58.6C444.8 58.4 444.5 58.1 444.5 57.6C444.5 57.2 444.5 56.6 444.5 56C444.5 54.8 444.5 53.4 444.5 51.8C444.5 51 444.5 50.2 444.5 49.3C444.5 48.9 444.6 48.5 444.9 48.2C445.2 47.9 445.6 47.8 446 47.8C446.4 47.8 446.8 48 447.1 48.3C447.4 48.6 447.5 49 447.4 49.4C447.4 50.3 447.4 51.1 447.4 51.9C447.4 53.5 447.4 54.9 447.4 56.1C447.4 56.4 447.4 56.7 447.4 56.9C447.4 57.2 447.4 57.4 447.4 57.6C447.3 58 447.1 58.4 446.8 58.5C446.3 59.1 445.9 59 445.9 59C445.9 59 446 59 446.2 59C446.4 59 446.6 58.9 446.9 58.8C447.2 58.6 447.5 58.3 447.6 57.8C447.7 57.6 447.6 57.3 447.6 57C447.6 56.7 447.6 56.5 447.6 56.2C447.6 55 447.6 53.6 447.6 52C447.6 51.2 447.6 50.4 447.6 49.5C447.6 49.1 447.5 48.5 447.2 48.2C446.9 47.8 446.4 47.6 445.9 47.6C445.4 47.6 444.9 47.8 444.6 48.1C444.3 48.4 444.1 48.9 444.1 49.4C444.1 50.2 444.1 51.1 444.1 51.9C444.1 53.5 444.1 54.9 444.1 56.1C444.1 56.7 444.1 57.2 444.1 57.7C444.2 58.2 444.5 58.6 444.7 58.8C445 59 445.2 59.1 445.4 59.1C445.8 59.1 445.9 59.1 445.9 59Z" fill="#263238"/>
<path d="M333.1 185.7L336.7 190.2V182.5H348C348 182.5 349.3 200.2 349 204C348.9 205.3 348.3 207.5 347.6 209.8C346.1 214.5 340.2 216 336.6 212.5C335.4 211.3 334.2 210 333.1 208.6C328.1 202.1 319.7 186.4 319.7 186.4L328.4 181.1L333.1 185.7Z" fill="#FFBE9D"/>
<path d="M332.4 184.9C332.3 185 332.9 185.7 333.9 186.9C334.9 188.1 336.2 189.7 337.7 191.5C339.2 193.3 340.6 194.8 341.8 195.9C342.9 197 343.7 197.5 343.7 197.5C343.8 197.4 343.1 196.8 342 195.7C341 194.6 339.6 193 338.1 191.2C335.1 187.6 332.5 184.8 332.4 184.9Z" fill="#EB996E"/>
<path d="M394.1 84.5999L394.6 125.8C394.7 132.8 393.4 143.1 382.3 142.7C372.7 141.7 370.2 132.6 370.1 126.1C370.1 123 370 120.4 370 120.1C370 120.1 359.5 119.2 358.6 108.9C358.2 103.9 358.1 93.4999 358.2 84.0999C358.3 73.9999 366.1 65.6999 376.2 64.8999L377.2 64.7999C388 64.6999 394.2 73.7999 394.1 84.5999Z" fill="#FFBE9D"/>
<path d="M370 120.1C370 120.1 376.6 120 383.2 115.1C383.2 115.1 380.5 122.9 370 122.7V120.1Z" fill="#EB996E"/>
<path d="M375.9 88.3C376.1 88.5 377.3 87.5 379 87.5C380.7 87.4 382 88.3 382.2 88.1C382.3 88 382.1 87.6 381.5 87.2C380.9 86.8 380 86.4 378.9 86.5C377.8 86.5 376.9 87 376.4 87.4C376 87.8 375.8 88.2 375.9 88.3Z" fill="#263238"/>
<path d="M375 92.5C375 93.2 375.7 93.8 376.5 93.8C377.3 93.8 377.9 93.2 377.9 92.4C377.9 91.7 377.2 91.1 376.4 91.1C375.6 91.2 375 91.8 375 92.5Z" fill="#263238"/>
<path d="M371.6 100.4C371.6 100.3 370.6 100.2 369 100.1C368.6 100.1 368.2 100 368.1 99.8C368 99.5 368.1 99.1 368.3 98.6C368.6 97.6 368.9 96.5 369.3 95.4C370.6 90.9 371.6 87.2 371.4 87.1C371.2 87 370 90.7 368.6 95.2C368.3 96.3 368 97.4 367.7 98.4C367.6 98.9 367.4 99.4 367.6 100C367.7 100.3 368 100.5 368.3 100.5C368.6 100.6 368.8 100.5 369 100.5C370.6 100.6 371.6 100.5 371.6 100.4Z" fill="#263238"/>
<path d="M376.7 80.9C376.9 81.3 378.3 81 379.9 81.1C381.6 81.2 382.9 81.6 383.1 81.2C383.2 81 382.9 80.7 382.4 80.3C381.8 80 381 79.7 380 79.6C379 79.6 378.1 79.8 377.5 80.1C376.9 80.4 376.6 80.8 376.7 80.9Z" fill="#263238"/>
<path d="M360.2 83.5C360.4 83.8 361.7 83.5 363.4 83.4C365 83.3 366.4 83.6 366.6 83.2C366.7 83 366.4 82.8 365.8 82.5C365.2 82.3 364.4 82.1 363.4 82.1C362.4 82.1 361.5 82.4 361 82.7C360.4 83.1 360.1 83.4 360.2 83.5Z" fill="#263238"/>
<path d="M393.8 92.4C394 92.3 400.8 89.8 401.1 96.9C401.4 104 394.2 102.8 394.2 102.6C394.1 102.4 393.8 92.4 393.8 92.4Z" fill="#FFBE9D"/>
<path d="M396.2 99.8C396.2 99.8 396.3 99.9 396.5 100C396.7 100.1 397.1 100.1 397.4 100C398.1 99.7 398.7 98.5 398.7 97.2C398.7 96.6 398.5 95.9 398.3 95.4C398.1 94.9 397.7 94.5 397.3 94.5C396.9 94.4 396.7 94.7 396.6 94.9C396.5 95.1 396.6 95.2 396.5 95.3C396.5 95.3 396.3 95.2 396.4 94.9C396.4 94.8 396.5 94.6 396.7 94.4C396.9 94.3 397.1 94.2 397.4 94.2C397.9 94.2 398.5 94.7 398.7 95.2C399 95.8 399.2 96.4 399.2 97.2C399.2 98.6 398.5 100 397.5 100.3C397 100.5 396.6 100.3 396.4 100.2C396.2 100 396.2 99.8 396.2 99.8Z" fill="#EB996E"/>
<path d="M373.3 105.3C373.2 105.1 374.6 104.7 375.6 103.4C376.1 102.8 376.4 102.1 376.6 101.5C376.8 101 377 100.7 377 100.7C377.1 100.7 377.1 101.1 376.9 101.6C376.8 102.2 376.5 102.9 376 103.7C375.5 104.4 374.7 104.9 374.2 105.1C373.7 105.4 373.3 105.4 373.3 105.3Z" fill="#263238"/>
<path d="M344.5 74.8C344.6 74.4 344.9 74 345.3 73.8C346.1 73.3 347 73.4 347.9 73.4C350.7 73.4 353.4 72.5 355.7 71C356.8 69.4 358 68 359.3 66.6C362.4 63.4 365 61.2 367.7 60.1C371.2 58.7 376.9 58.1 380.5 59.1C384.1 60 387.3 63 387.8 66.7C389.8 65 392.9 65 395.3 66H395.4C398.1 67 399.7 69.9 400.5 72.7C401.3 75.5 401.7 78.5 403.1 81C403.4 81.5 403.8 82.2 403.5 82.7C403.3 83.1 402.8 83.3 402.3 83.2C401.8 83.1 401.4 82.9 401 82.6C401.3 83.3 401.6 84.1 401.9 84.8C400.9 85 399.9 84.9 398.9 84.6C398.3 87.2 397.6 90.2 396.9 92C395.8 92 394.7 92.1 394 92.7C393 93.6 392.6 95.2 391 94.6C390.2 94.3 389.4 92.6 389.2 91.8C387.4 86.3 386.8 80.4 387.4 74.7C386.3 73.5 384.9 72.5 383.4 71.8L383.5 71.9C380.6 70.9 377.3 69.9 374.6 71.3C372.5 72.4 371.2 74.6 369.6 76.3C366.6 79.6 362.5 81.5 358 81.7C357.8 84.6 358.1 88.7 357.9 91.7L355.4 87C355.2 86.7 355 86.3 354.9 86L354.8 85.9C354.5 85.3 354.3 84.8 354 84.2C352.4 85.6 350.1 83.5 351.3 81.8C351.5 81.5 351.8 81.2 352.2 80.9C351.5 81.6 350.4 81.9 349.5 81.6C348.6 81.3 347.8 80.4 347.9 79.4C348 78.7 348.4 78.1 349 77.9C347.7 78 346.4 77.7 345.3 77.1C344.9 76.4 344.2 75.7 344.5 74.8Z" fill="#263238"/>
<path d="M384.6 67.8C384.6 67.8 385 68.1 385.6 68.8C386.2 69.5 386.9 70.6 387.2 72.2C387.4 73 387.5 73.9 387.5 74.8C387.5 75.8 387.4 76.8 387.4 77.9C387.3 79 387.3 80.1 387.3 81.3C387.3 81.9 387.4 82.5 387.5 83.1C387.6 83.7 387.8 84.3 388.2 84.8C388.6 85.2 389.1 85.4 389.7 85.3C390.2 85.2 390.7 84.9 391 84.6C391.7 83.8 391.8 82.8 392 82H391.8C392.2 82.8 392.5 83.6 393.1 84.2C393.6 84.8 394.4 85.2 395.1 85.3C395.5 85.3 395.8 85.3 396.2 85.1C396.5 84.9 396.8 84.7 396.9 84.4C397.1 84.1 397.1 83.8 397.1 83.5C397.1 83.2 397 82.9 396.8 82.7L396.7 82.8C397.5 83.7 398.3 84.2 398.9 84.5C399.2 84.6 399.4 84.7 399.6 84.8C399.8 84.8 399.8 84.9 399.8 84.9C399.8 84.9 399.7 84.9 399.6 84.8C399.4 84.7 399.2 84.6 398.9 84.5C398.3 84.2 397.5 83.7 396.8 82.8L396.7 82.9C397 83.3 397.1 83.9 396.8 84.4C396.6 84.7 396.4 84.9 396.1 85C395.8 85.1 395.5 85.2 395.1 85.2C394.4 85.1 393.7 84.7 393.2 84.2C392.7 83.6 392.3 82.9 392 82.1L391.9 81.8L391.8 82.2C391.6 83.1 391.5 84 390.8 84.7C390.5 85 390.1 85.3 389.6 85.4C389.1 85.5 388.7 85.3 388.4 85C388 84.6 387.9 84 387.7 83.4C387.6 82.8 387.5 82.2 387.5 81.6C387.4 80.4 387.5 79.3 387.6 78.2C387.7 77.1 387.7 76.1 387.7 75.1C387.7 74.1 387.6 73.2 387.4 72.4C387.1 70.8 386.3 69.6 385.7 68.9C385.1 68.1 384.6 67.8 384.6 67.8Z" fill="#455A64"/>
<path d="M352.6 77.9C352.8 78 352.8 78.1 352.9 78.2C353 78.3 353.2 78.4 353.3 78.5C353.5 78.6 353.7 78.7 353.9 78.8C354.9 79.3 356.4 79.7 358.3 79.6C360.2 79.5 362.5 78.8 364.6 77.3C366.7 75.8 368.5 73.6 370 71.1C370.8 69.8 371.4 68.6 372 67.4C372.7 66.2 373.4 65.1 374.3 64.2C375.2 63.3 376.2 62.7 377.3 62.4C377.8 62.2 378.4 62.2 378.9 62.2C379.4 62.2 379.9 62.3 380.3 62.5C381.2 62.8 381.9 63.3 382.5 63.8C383 64.3 383.4 64.9 383.7 65.3C384.2 66.3 384.2 66.9 384.2 66.9C384.2 66.9 384.2 66.9 384.2 66.8C384.2 66.7 384.2 66.6 384.2 66.5C384.1 66.2 384 65.8 383.8 65.3C383.6 64.8 383.2 64.3 382.6 63.7C382 63.2 381.3 62.7 380.4 62.3C379.9 62.1 379.4 62 378.9 62C378.4 62 377.8 62 377.3 62.2C376.2 62.5 375.1 63.2 374.2 64C373.3 64.9 372.5 66 371.8 67.2C371.1 68.4 370.5 69.7 369.8 70.9C368.3 73.4 366.5 75.6 364.5 77C362.5 78.5 360.2 79.2 358.4 79.3C356.5 79.4 355 79 354 78.6C353.1 78.3 352.6 77.9 352.6 77.9Z" fill="#455A64"/>
<path d="M351.6 73.3999C351.6 73.3999 351.7 73.4999 352 73.6999C352.2 73.8999 352.6 74.0999 353.1 74.2999C353.6 74.4999 354.2 74.6999 354.8 74.8999C355.5 75.0999 356.2 75.1999 357 75.1999C357.8 75.1999 358.6 75.1999 359.2 74.9999C359.9 74.8999 360.5 74.6999 361 74.4999C361.5 74.2999 361.9 74.1999 362.1 73.9999C362.4 73.8999 362.5 73.7999 362.5 73.7999C362.5 73.7999 361.9 74.0999 360.9 74.3999C360.4 74.5999 359.8 74.6999 359.1 74.7999C358.4 74.8999 357.7 74.9999 356.9 74.8999C356.1 74.8999 355.4 74.7999 354.7 74.5999C354 74.4999 353.5 74.2999 353 74.0999C352.2 73.6999 351.7 73.2999 351.6 73.3999Z" fill="#455A64"/>
<path d="M360.1 88.3C360.3 88.5 361.5 87.5 363.2 87.5C364.9 87.4 366.2 88.3 366.4 88.1C366.5 88 366.3 87.6 365.7 87.2C365.1 86.8 364.2 86.4 363.1 86.5C362 86.5 361.1 87 360.6 87.4C360.2 87.8 360 88.2 360.1 88.3Z" fill="#263238"/>
<path d="M360.5 92.5C360.5 93.2 361.2 93.8 362 93.8C362.8 93.8 363.4 93.2 363.4 92.4C363.4 91.7 362.7 91.1 361.9 91.1C361.1 91.2 360.4 91.8 360.5 92.5Z" fill="#263238"/>
<path d="M414.6 397.8L416.7 423.7L424.3 443.7C424.8 445.1 424.1 446.7 422.6 447.2C421.8 447.5 420.9 447.3 420.2 446.8C415.9 443.4 400.2 431.1 400 429.5C399.8 427.4 395.8 402 395.8 402L414.6 397.8Z" fill="#455A64"/>
<path d="M422.6 447.2L399.6 426.5L399.8 428.4C400 429.4 400 430 400.7 430.7C402.5 432.5 407.9 437.8 420 447.2C420.7 447.7 421.8 447.5 422.6 447.2Z" fill="#263238"/>
<path d="M404.1 418.4C404.8 418.8 405.1 419.7 404.8 420.4C404.4 421.1 403.5 421.4 402.8 421.1C402.1 420.7 401.7 419.6 402.1 418.9C402.5 418.2 403.7 417.9 404.3 418.4" fill="white"/>
<path d="M415.5 436.5C415.7 436.6 416.1 435.1 417.6 434.3C419 433.4 420.5 433.6 420.5 433.4C420.5 433.3 420.2 433.2 419.6 433.1C419 433.1 418.1 433.3 417.3 433.8C416.5 434.3 416 435 415.7 435.6C415.4 436.1 415.4 436.5 415.5 436.5Z" fill="#263238"/>
<path d="M417.7 439.8C417.8 439.9 418.6 439 419.9 438.4C421.2 437.8 422.4 438 422.4 437.8C422.5 437.7 421.2 437.2 419.7 437.9C418.2 438.5 417.6 439.7 417.7 439.8Z" fill="#263238"/>
<path d="M411.6 432.5C411.7 432.6 412.9 431.2 414.8 430.2C416.7 429.2 418.5 429.1 418.5 428.9C418.5 428.8 416.6 428.6 414.5 429.7C412.5 430.7 411.5 432.4 411.6 432.5Z" fill="#263238"/>
<path d="M410.3 424.6C410.4 424.7 411.7 424 413.6 423.7C415.4 423.4 417 423.7 417 423.6C417.1 423.5 415.5 422.9 413.5 423.2C411.5 423.5 410.2 424.5 410.3 424.6Z" fill="#263238"/>
<path d="M409.5 417.1C409.6 417.2 410.9 416.2 412.9 416.1C414.9 415.9 416.3 416.7 416.4 416.6C416.4 416.5 416.1 416.2 415.5 416C414.9 415.7 413.9 415.5 412.9 415.6C411.8 415.7 410.9 416 410.3 416.4C409.7 416.7 409.4 417 409.5 417.1Z" fill="#263238"/>
<path d="M412.7 414.6C412.7 414.6 412.8 414.2 412.6 413.6C412.5 413 412.2 412.1 411.6 411.1C411.3 410.7 410.9 410.1 410.2 409.8C409.8 409.7 409.3 409.8 409 410.2C408.7 410.6 408.7 411 408.7 411.4C408.9 413 410.5 414.5 412.3 414.5C414.2 414.5 415.7 413.3 416.3 411.8C416.4 411.4 416.5 411 416.2 410.5C416 410.1 415.4 410 415 410.1C414.2 410.3 413.8 410.8 413.4 411.2C412.6 412 412.1 412.8 411.9 413.4C411.6 414 411.6 414.3 411.6 414.3C411.7 414.4 412.1 413 413.7 411.5C414.1 411.2 414.6 410.7 415.1 410.6C415.4 410.5 415.6 410.6 415.7 410.8C415.8 411 415.8 411.3 415.7 411.6C415.2 412.8 413.8 413.9 412.2 413.9C410.6 413.9 409.2 412.6 409.1 411.3C409.1 411 409.1 410.7 409.3 410.4C409.4 410.2 409.7 410.1 409.9 410.2C410.4 410.3 410.8 410.9 411.1 411.3C412.5 413.2 412.6 414.7 412.7 414.6Z" fill="#263238"/>
<path d="M353.3 399.2L354.3 421.1C354.3 421.1 332.3 429.4 332.1 433.5L374.7 433.2L374.6 399L353.3 399.2Z" fill="#455A64"/>
<path d="M367.4 419.1C368.2 419.3 368.8 420.2 368.6 421.1C368.4 421.9 367.5 422.5 366.7 422.3C365.9 422.1 365.1 421 365.4 420.2C365.7 419.4 366.8 418.8 367.6 419.2" fill="#E0E0E0"/>
<path d="M374.6 433.2L374.5 429.8L333.8 431.4C333.8 431.4 331.9 432.2 332.1 433.6L374.6 433.2Z" fill="#263238"/>
<path d="M353.5 420.9C353.5 421.1 354.5 421.2 355.6 421.9C356.6 422.5 357.2 423.4 357.4 423.3C357.6 423.3 357.3 422 356 421.2C354.7 420.4 353.5 420.7 353.5 420.9Z" fill="#263238"/>
<path d="M349.1 422.8C349.1 423 350 423.3 350.7 424.2C351.4 425.1 351.6 426 351.8 426C352 426 352.1 424.8 351.2 423.7C350.3 422.6 349.1 422.6 349.1 422.8Z" fill="#263238"/>
<path d="M346.6 428.1C346.8 428.1 347.1 427.1 346.5 426C346 424.9 345 424.4 344.9 424.6C344.8 424.8 345.4 425.4 345.9 426.3C346.3 427.2 346.4 428.1 346.6 428.1Z" fill="#263238"/>
<path d="M353.9 415.9C354 416.1 354.9 415.8 356.1 415.9C357.3 415.9 358.2 416.3 358.3 416.2C358.4 416 357.5 415.3 356.1 415.2C354.7 415 353.8 415.7 353.9 415.9Z" fill="#263238"/>
<path d="M345.9 241.8C345.9 243.1 350.8 418.2 350.8 418.2H377.1L382.4 268.4C382.4 268.4 388.6 346.7 388.6 348.4C388.6 350.1 394.1 419 394.1 419L418.5 417L416.9 259.3L413.9 236.2L345.9 241.8Z" fill="#263238"/>
<path d="M385.2 262.9C385.2 262.9 384.8 263.1 384.1 263.3C383.4 263.6 382.4 263.9 381.1 264.3L380.9 264.4V264.2C380.8 262.1 380.6 259.3 380.4 256.2C380.2 252.9 380.1 249.8 380 247.6C380 246.5 380 245.6 380 245C380 244.4 380 244 380.1 244C380.1 244 380.2 244.3 380.2 244.9C380.3 245.5 380.3 246.4 380.4 247.5C380.6 249.7 380.7 252.7 380.9 256.1C381.1 259.2 381.2 262 381.2 264.1L381 264C382.3 263.6 383.3 263.3 384 263.1C384.8 262.9 385.2 262.8 385.2 262.9Z" fill="#455A64"/>
<path d="M383.2 244.7C383.2 244.7 383.3 244.6 383.5 244.5C383.8 244.4 384.2 244.4 384.7 244.6C385.2 244.8 385.7 245.3 385.6 246C385.5 246.7 385 247.4 384.2 247.5C383.4 247.6 382.6 247.2 382.3 246.6C381.9 246 382.1 245.3 382.3 244.9C382.6 244.5 382.9 244.3 383.2 244.2C383.5 244.1 383.6 244.1 383.6 244.2C383.6 244.3 383 244.4 382.6 245.1C382.4 245.5 382.4 246 382.7 246.4C383 246.8 383.6 247.1 384.1 247C384.7 246.9 385.1 246.4 385.1 245.9C385.2 245.4 384.9 245 384.5 244.8C383.8 244.4 383.2 244.7 383.2 244.7Z" fill="#455A64"/>
<path d="M395.3 246.5C395.2 246.5 395 245.8 394.9 244.8C394.8 243.8 394.8 243.1 395 243.1C395.1 243.1 395.3 243.8 395.4 244.8C395.4 245.7 395.4 246.4 395.3 246.5Z" fill="#455A64"/>
<path d="M397.1 246.3C397 246.3 396.8 245.5 396.8 244.5C396.8 243.5 396.9 242.7 397.1 242.7C397.2 242.7 397.4 243.5 397.4 244.5C397.3 245.5 397.2 246.3 397.1 246.3Z" fill="#455A64"/>
<path d="M365.4 247.5C365.3 247.5 365 246.6 364.9 245.5C364.8 244.4 364.8 243.4 364.9 243.4C365 243.4 365.3 244.3 365.4 245.4C365.5 246.5 365.5 247.5 365.4 247.5Z" fill="#455A64"/>
<path d="M367.6 247.7C367.5 247.7 367 246.8 367 245.6C366.9 244.4 367.3 243.4 367.5 243.4C367.6 243.4 367.5 244.4 367.6 245.6C367.5 246.7 367.7 247.6 367.6 247.7Z" fill="#455A64"/>
<path d="M359.3 245.3C359.3 245.3 359.3 245.6 359.2 246.1C359.1 246.6 358.9 247.3 358.7 248.2C358.2 249.9 357.1 252.2 355.4 254.4C353.7 256.6 351.8 258.3 350.3 259.4C349.5 259.9 348.9 260.3 348.4 260.5C347.9 260.7 347.7 260.9 347.7 260.8C347.7 260.7 348.7 260.2 350.1 259.1C351.6 258 353.4 256.3 355.1 254.1C356.7 251.9 357.8 249.7 358.4 248C358.9 246.4 359.2 245.3 359.3 245.3Z" fill="#455A64"/>
<path d="M416.1 257.1C416.1 257.1 415.8 257.2 415.3 257.2C414.8 257.2 414 257.3 413.1 257.2C411.3 257 408.7 256.3 406.4 254.7C404.1 253.1 402.6 250.9 401.9 249.3C401.5 248.5 401.3 247.8 401.2 247.3C401.1 246.8 401.1 246.5 401.1 246.5C401.2 246.5 401.4 247.6 402.2 249.1C403 250.7 404.4 252.7 406.7 254.3C408.9 255.9 411.4 256.6 413.2 256.8C415 257.1 416.1 257 416.1 257.1Z" fill="#455A64"/>
<path d="M373.3 345.8C373.3 345.9 368.9 344.9 363.6 343.6C358.3 342.2 353.9 341 354 340.9C354 340.8 358.4 341.8 363.7 343.1C369 344.5 373.3 345.7 373.3 345.8Z" fill="#455A64"/>
<path d="M415.7 339.4C415.8 339.5 412 341.6 407.2 344.1C402.5 346.6 398.6 348.5 398.5 348.4C398.4 348.3 402.2 346.2 407 343.7C411.7 341.3 415.6 339.3 415.7 339.4Z" fill="#455A64"/>
<path d="M358.9 131.3L370.9 126.6L392.9 125.4L403.2 129.3L389.1 137.2L376.8 136.7L358.9 131.3Z" fill="#FFBE9D"/>
<path d="M344.8 243.7C345.9 243.9 418 246.9 418 246.9L415.5 182.1L415.3 169.4L411.2 130.8C411.2 130.8 400.4 127.1 394.9 125.3C394.9 125.3 389.1 131.3 378.1 131.2C367.3 131 365.1 128.6 365.1 128.6L350.1 134.4C350.1 134.4 339.4 138.2 337.6 143C335.8 147.6 332.5 173.9 332.5 173.9H348.1L347.8 220.4L344.8 243.7Z" fill="#D4B2D6"/>
<g opacity="0.2">
<path d="M390.2 157.2L392.4 173.5L403.2 178.4L411.2 171.6V156.4L390.2 157.2Z" fill="black"/>
</g>
<path d="M411 161.8C411 161.9 406.5 162 401 162C395.5 162 391 161.9 391 161.8C391 161.7 395.5 161.6 401 161.6C406.5 161.6 411 161.7 411 161.8Z" fill="#263238"/>
<path d="M340 149.7C340 149.7 340.1 149.8 340.1 150.1C340.2 150.4 340.3 150.8 340.4 151.4C340.7 152.5 341.1 154.1 341.8 156C342.5 157.9 343.5 160.2 344.8 162.8C346 165.4 347 168.4 348.1 171.6C348.1 175.5 348 179.7 348 184.2C347.9 194.1 347.8 203.1 347.7 209.6C347.6 212.8 347.6 215.4 347.6 217.3C347.6 218.2 347.6 218.9 347.5 219.4C347.5 219.9 347.5 220.1 347.4 220.1C347.4 220.1 347.4 219.8 347.4 219.4C347.4 218.9 347.4 218.2 347.4 217.3C347.4 215.4 347.4 212.8 347.4 209.6C347.4 203 347.5 194.1 347.5 184.2C347.5 179.8 347.6 175.5 347.6 171.6V171.7C346.5 168.5 345.5 165.5 344.3 162.9C343.1 160.3 342.1 158 341.4 156.1C340.7 154.1 340.3 152.5 340.1 151.4C340 150.8 339.9 150.4 339.9 150.1C340 149.9 340 149.7 340 149.7Z" fill="#263238"/>
<path d="M416.4 142.2C416.4 142.2 416.4 142.7 416.4 143.6C416.4 144.6 416.3 145.8 416.3 147.4C416.2 150.7 416 155 415.8 159.8C415.6 164.6 415.4 169 415.2 172.2C415.1 173.7 415 175 415 176C414.9 176.9 414.9 177.4 414.9 177.4C414.9 177.4 414.9 176.9 414.9 176C414.9 175 414.9 173.8 415 172.2C415.1 169 415.2 164.6 415.4 159.8C415.6 154.9 415.8 150.6 416 147.4C416.1 145.8 416.2 144.5 416.3 143.6C416.3 142.6 416.4 142.2 416.4 142.2Z" fill="#263238"/>
<g opacity="0.3">
<path d="M340 152.1C339.6 159.2 342.3 166.1 347.1 171.4C345.6 164.7 342 158.5 340 152.1Z" fill="black"/>
</g>
<g opacity="0.3">
<path d="M371.7 216.3C375.1 216 378.1 214 380.4 211.5C382.6 209 384.7 206.1 386.2 203.1C388.3 199 389.3 194.5 389.6 189.9C385.4 201.1 379.2 210 371.7 216.3Z" fill="black"/>
</g>
<path d="M390.9 184.9C390.9 184.9 390.9 185 390.8 185.3C390.7 185.6 390.6 186 390.5 186.5C390.4 187 390.2 187.6 390 188.3C389.8 189 389.6 189.8 389.2 190.7C388.6 192.5 387.8 194.5 386.7 196.8C385.6 199 384.3 201.4 382.7 203.8C381.1 206.2 379.4 208.3 377.8 210.2C376.1 212 374.6 213.6 373.2 214.8C372.5 215.4 371.8 215.9 371.3 216.4C370.7 216.9 370.2 217.2 369.8 217.5C369.4 217.8 369.1 218 368.8 218.2C368.6 218.3 368.4 218.4 368.4 218.4C368.4 218.4 368.5 218.3 368.7 218.1C369 217.9 369.3 217.7 369.6 217.4C370 217.1 370.5 216.7 371.1 216.2C371.7 215.7 372.3 215.2 373 214.6C374.4 213.4 375.9 211.8 377.5 209.9C379.1 208 380.8 205.9 382.3 203.6C383.9 201.2 385.2 198.9 386.3 196.7C387.4 194.5 388.2 192.5 388.9 190.7C389.2 189.8 389.5 189 389.7 188.3C389.9 187.6 390.1 187 390.3 186.5C390.4 186 390.5 185.7 390.6 185.4C390.8 185.1 390.9 184.9 390.9 184.9Z" fill="#263238"/>
<path d="M388.8 164.6C388.8 164.6 388.8 164.8 388.7 165.3C388.6 165.8 388.5 166.4 388.4 167.2C388.3 168 388.1 169 387.8 170.2C387.5 171.3 387.2 172.7 386.8 174.1C386.6 174.8 386.4 175.6 386.1 176.3C385.9 177.1 385.6 177.9 385.3 178.7C384.8 180.4 384 182.1 383.3 183.9C381.7 187.5 379.8 191.4 377.5 195.3C375.1 199.2 372.5 202.6 370 205.7C368.7 207.2 367.5 208.6 366.3 209.9C365.7 210.5 365.1 211.2 364.5 211.7C363.9 212.3 363.3 212.8 362.8 213.3C361.7 214.3 360.7 215.2 359.8 216C358.9 216.8 358.1 217.4 357.4 217.9C356.8 218.4 356.3 218.8 355.9 219.1C355.5 219.4 355.4 219.5 355.3 219.5C355.3 219.5 355.5 219.3 355.8 219C356.2 218.7 356.7 218.3 357.3 217.8C357.9 217.3 358.7 216.6 359.6 215.8C360.5 215 361.5 214.2 362.5 213.1C363 212.6 363.6 212 364.2 211.5C364.8 210.9 365.3 210.3 365.9 209.7C367.1 208.5 368.3 207 369.6 205.5C372.1 202.5 374.6 199 377 195.1C379.3 191.2 381.3 187.4 382.9 183.8C383.6 182 384.4 180.3 384.9 178.6C385.2 177.8 385.5 177 385.7 176.2C385.9 175.4 386.2 174.7 386.4 174C386.9 172.6 387.2 171.3 387.5 170.2C387.8 169.1 388 168.1 388.2 167.3C388.4 166.5 388.5 165.9 388.6 165.4C388.7 164.8 388.8 164.6 388.8 164.6Z" fill="#263238"/>
<path d="M331.8 144.5C336.2 151.3 354.2 178.6 359.6 186.7C360.2 187.6 359.5 188.8 358.4 188.6L326.4 184.6C326.1 184.6 325.7 184.4 325.5 184.1L295 142.4C294.4 141.5 295 140.3 296.1 140.4L329 142.8C330.2 142.9 331.2 143.5 331.8 144.5Z" fill="#E0E0E0"/>
<path d="M331.8 144.5C331.8 144.5 331.7 144.4 331.5 144.1C331.3 143.9 331 143.5 330.5 143.2C330 142.9 329.2 142.7 328.4 142.7C327.5 142.6 326.5 142.5 325.4 142.5C320.9 142.1 314.4 141.6 306.4 141C304.4 140.8 302.3 140.7 300.1 140.5C299 140.4 297.9 140.3 296.8 140.2C296.5 140.2 296.3 140.1 295.9 140.1C295.6 140.1 295.2 140.3 295 140.5C294.5 140.9 294.4 141.8 294.8 142.4C297.6 146.2 300.6 150.3 303.7 154.6C310 163.2 316.9 172.6 324.1 182.5C324.6 183.1 325 183.7 325.5 184.4C325.7 184.6 325.9 184.7 326.1 184.8C326.3 184.9 326.5 184.9 326.7 184.9L327.8 185C329.3 185.2 330.8 185.4 332.3 185.6C335.3 186 338.2 186.3 341 186.7C346.7 187.4 352.3 188.1 357.5 188.8C357.8 188.8 358.1 188.9 358.5 188.9C358.9 188.9 359.3 188.7 359.6 188.5C359.9 188.2 360 187.8 360 187.4C360 187 359.8 186.6 359.6 186.4C358.9 185.3 358.2 184.3 357.5 183.2C356.1 181.1 354.8 179.1 353.5 177.1C350.9 173.2 348.5 169.5 346.3 166.1C341.9 159.4 338.3 154 335.8 150.3C334.6 148.5 333.6 147 332.9 146C332.6 145.5 332.3 145.2 332.1 144.9C331.9 144.6 331.8 144.4 331.8 144.5C331.8 144.5 331.9 144.6 332 144.9C332.2 145.2 332.4 145.6 332.7 146C333.4 147 334.3 148.5 335.5 150.3C338 154.1 341.5 159.5 345.9 166.2C348.1 169.6 350.5 173.2 353.1 177.2C354.4 179.2 355.7 181.2 357.1 183.3C357.8 184.4 358.5 185.4 359.2 186.5C359.4 186.8 359.5 187 359.5 187.3C359.5 187.6 359.4 187.8 359.2 188C359 188.2 358.8 188.3 358.5 188.3C358.2 188.3 357.9 188.2 357.5 188.2C352.2 187.5 346.7 186.8 341 186.1C338.1 185.7 335.2 185.4 332.3 185C330.8 184.8 329.3 184.6 327.8 184.4L326.7 184.3C326.5 184.3 326.3 184.3 326.2 184.2C326.1 184.1 325.9 184.1 325.8 184C325.4 183.4 324.9 182.8 324.5 182.2C317.3 172.3 310.4 162.9 304.1 154.3C301 150 298 146 295.2 142.2C294.9 141.8 295 141.2 295.4 140.9C295.6 140.7 295.8 140.6 296 140.6C296.2 140.6 296.6 140.6 296.8 140.6C297.9 140.7 299.1 140.8 300.1 140.8C302.3 141 304.4 141.1 306.4 141.2C314.4 141.8 320.9 142.2 325.4 142.5C326.5 142.6 327.5 142.6 328.4 142.7C329.3 142.7 330 142.9 330.5 143.2C331.5 143.9 331.8 144.5 331.8 144.5Z" fill="#263238"/>
<path d="M295 142.4C295 142.4 295.2 142.4 295.7 142.5C296.2 142.5 296.8 142.6 297.6 142.7C299.3 142.9 301.8 143.1 304.8 143.3C311 143.8 319.6 144.5 329.4 145.3L329.2 145.2C330.7 147.5 332.3 149.9 333.9 152.3C340.4 162.3 346 171.4 350.3 177.9C352.4 181.2 354.2 183.8 355.4 185.6C356 186.5 356.5 187.1 356.8 187.7C357.1 188.2 357.3 188.4 357.3 188.4C357.3 188.4 357.2 188.1 356.9 187.6C356.6 187.1 356.1 186.4 355.5 185.5C354.3 183.6 352.6 181 350.5 177.7C346.3 171.1 340.7 161.9 334.2 152C332.6 149.5 331 147.2 329.5 144.9L329.4 144.8H329.3C319.5 144.1 310.9 143.4 304.7 143C301.7 142.8 299.2 142.6 297.5 142.5C296.7 142.5 296 142.4 295.6 142.4C295.3 142.3 295 142.3 295 142.4Z" fill="#263238"/>
<path d="M314.1 148.8C314.2 148.4 314.5 148.3 314.9 148.3C315.3 148.4 315.5 148.5 315.8 148.8C316.1 149.1 316.2 149.6 316 149.9C315.7 150.3 315 150.1 314.6 149.8C314.2 149.6 314 149.2 314.1 148.8Z" fill="white"/>
<path d="M329 172.5C329 172.5 330.3 169.5 327.1 169.1C323.9 168.7 315.5 169.1 315.5 169.1C315.5 169.1 310.9 169.6 311.9 172.9C311.9 172.9 309.2 175.3 310.6 177.9C312.1 180.5 312.6 179.7 312.6 179.7C312.6 179.7 312.2 182.9 314.6 183.4C314.6 183.4 317.2 186.5 319.7 186.3C322.1 186.1 332.4 181.2 333.1 180.2C333.8 179.2 334.7 178.7 334.2 177.6C334.2 177.6 335.5 174.8 332.7 174.3C332.7 174.3 332.5 172 329 172.5Z" fill="#FFBE9D"/>
<path d="M314.4 173.5C314.4 173.6 315.2 173.6 316.6 173.7C317.9 173.7 319.8 173.7 321.8 173.7C323.8 173.6 325.7 173.7 327 173.4C328.4 173.1 328.9 172.3 328.9 172.3C328.8 172.2 328.3 172.9 327 173.1C325.7 173.3 323.9 173.2 321.8 173.2C319.8 173.2 317.9 173.3 316.6 173.4C315.2 173.4 314.4 173.5 314.4 173.5Z" fill="#EB996E"/>
<path d="M316.7 178.4C316.7 178.4 316.9 178.5 317.4 178.6C317.9 178.7 318.6 178.8 319.4 178.7C320.2 178.7 321.2 178.5 322.3 178.2C323.4 177.9 324.5 177.5 325.7 177.1C326.9 176.7 328.1 176.5 329.1 176.4C330.1 176.4 331.3 176.4 332 175.8C332.4 175.5 332.6 175.2 332.7 174.8C332.8 174.4 332.7 174.1 332.6 173.9C332.3 173.4 332 173.4 332 173.4C332 173.4 332.2 173.5 332.4 173.9C332.6 174.3 332.5 175 331.8 175.4C331.1 175.8 330.2 175.8 329.1 175.8C328 175.8 326.8 176.1 325.5 176.5C324.3 176.9 323.2 177.3 322.1 177.6C321.1 177.9 320.1 178.1 319.3 178.2C317.7 178.6 316.7 178.3 316.7 178.4Z" fill="#EB996E"/>
<path d="M320.1 182.5C320.1 182.6 320.9 182.4 322.3 182.1C323.6 181.8 325.4 181.3 327.4 180.6C329.4 180 331.1 179.3 332.4 178.8C333.7 178.3 334.4 177.9 334.4 177.9C334.3 177.8 331.2 178.9 327.3 180.1C323.3 181.4 320.1 182.4 320.1 182.5Z" fill="#EB996E"/>
<path d="M319.3 186.3C319.3 186.4 320 186.3 321.1 186.1C322.2 185.9 323.7 185.4 325.2 184.7C326.7 184 328.1 183.3 329.1 182.8C330.1 182.3 330.7 181.9 330.6 181.9C330.5 181.7 328 182.8 325 184.3C322 185.6 319.3 186.2 319.3 186.3Z" fill="#EB996E"/>
<path d="M421.6 157.4C421.6 157.4 415.1 183.6 406.9 193.3C399 202.7 386.6 198.4 382.3 186.2C378 174.1 370.4 146.4 370.4 146.4L379.8 139.2L396 170.7L403.3 149.3L421.6 157.4Z" fill="#FFBE9D"/>
<path d="M370.7 147.1L363.8 137.1C363.8 137.1 361.5 136.6 360.9 136.2C360.1 135.7 359.4 131.8 359.4 131C359.4 130.2 358.1 128.4 358.6 127.9C359.1 127.4 361 127.4 360.9 126.6C360.9 126.4 359.5 124.8 360.6 123.6C361 123.2 362.5 122.8 362.5 122.8L362.4 119C362.4 119 364.5 114.5 366.6 116.1C366.6 116.1 374.5 122.2 375.3 123.2C376.1 124.2 379.1 136.9 379.7 139.2" fill="#FFBE9D"/>
<path d="M379.7 139.2C379.7 139.2 379.7 139 379.6 138.5C379.5 138 379.4 137.4 379.2 136.6C378.8 134.9 378.3 132.6 377.5 129.6C377.1 128.1 376.7 126.5 376.2 124.8C376.1 124.4 375.9 123.9 375.7 123.5C375.5 123 375.1 122.7 374.8 122.4C374.1 121.8 373.3 121.1 372.5 120.5C370.9 119.2 369.3 117.9 367.5 116.6C367.1 116.3 366.7 115.9 366 115.6C365.4 115.4 364.7 115.7 364.2 116C363.2 116.8 362.6 117.8 362.1 118.9V119C362.1 119.4 362.1 119.8 362.1 120.2C362.1 121.1 362.2 122 362.2 122.8L362.4 122.6C361.9 122.7 361.5 122.9 361 123.1C360.8 123.2 360.5 123.3 360.3 123.5C360.1 123.7 360 123.9 359.9 124.2C359.7 124.7 359.9 125.3 360 125.7C360.1 125.9 360.2 126.1 360.3 126.4L360.5 126.7V126.8C360.5 126.8 360.5 126.8 360.5 126.9C360.5 127 360.3 127.1 360.1 127.2C359.9 127.3 359.7 127.3 359.5 127.4C359.3 127.5 359.1 127.5 358.8 127.6C358.6 127.7 358.4 127.8 358.1 128.1C357.9 128.4 358 128.7 358.1 128.9C358.2 129.1 358.2 129.3 358.3 129.5C358.5 129.9 358.7 130.3 358.8 130.7C358.9 130.9 358.9 131.1 358.9 131.2C358.9 131.4 358.9 131.6 359 131.9C359.1 132.3 359.1 132.7 359.2 133.1C359.4 133.9 359.6 134.7 359.8 135.4C360 135.8 360.1 136.1 360.4 136.5C360.8 136.8 361.1 136.8 361.5 137C362.2 137.2 362.9 137.4 363.5 137.5L363.4 137.4C365.5 140.4 367.3 142.9 368.5 144.7C369.1 145.5 369.6 146.2 369.9 146.7C370.2 147.1 370.4 147.4 370.4 147.4C370.4 147.4 370.3 147.1 370 146.7C369.7 146.2 369.2 145.5 368.7 144.7C367.5 142.9 365.8 140.4 363.7 137.4V137.3H363.6C363 137.1 362.3 137 361.6 136.7C361.3 136.6 360.9 136.5 360.7 136.3C360.5 136.1 360.3 135.7 360.2 135.4C359.9 134.7 359.8 133.9 359.6 133.2C359.5 132.8 359.4 132.4 359.4 132C359.4 131.8 359.3 131.6 359.3 131.4C359.3 131.2 359.2 130.9 359.2 130.7C359 130.3 358.9 129.9 358.7 129.5C358.6 129.3 358.5 129.1 358.5 128.9C358.4 128.7 358.4 128.5 358.5 128.4C358.5 128.3 358.7 128.2 358.9 128.1C359.1 128 359.3 128 359.5 127.9C359.7 127.8 359.9 127.8 360.2 127.7C360.4 127.6 360.7 127.5 360.9 127.2C360.9 127.1 360.9 127 360.9 126.9C360.9 126.9 360.9 126.8 360.9 126.7V126.6L360.7 126.3C360.6 126.1 360.5 125.9 360.4 125.7C360.3 125.3 360.2 124.9 360.3 124.5C360.3 124.3 360.5 124.1 360.6 124C360.7 123.9 360.9 123.8 361.1 123.7C361.5 123.5 362 123.4 362.4 123.3H362.6V123.1C362.6 122.2 362.5 121.3 362.5 120.5C362.5 120.1 362.5 119.7 362.5 119.3V119.4C363 118.4 363.6 117.4 364.5 116.7C364.9 116.4 365.4 116.2 365.9 116.3C366.3 116.4 366.8 116.9 367.2 117.2C368.9 118.5 370.6 119.8 372.2 121.1C373 121.7 373.7 122.3 374.5 123C374.9 123.3 375.2 123.6 375.3 124C375.5 124.4 375.6 124.8 375.8 125.3C376.3 127 376.8 128.6 377.2 130.1C378 133 378.6 135.4 379 137C379.2 137.8 379.4 138.4 379.5 138.9C379.6 139 379.7 139.2 379.7 139.2Z" fill="#EB996E"/>
<path d="M362.5 122.8C362.5 122.9 363.3 122.8 364.6 122.9C365.2 122.9 365.9 123.2 366.8 123.4C367.7 123.6 368.6 123.5 369.6 123.4C371.5 123.1 373.2 124 374 124.8C374.9 125.7 375 126.5 375.1 126.5C375.1 126.5 375.2 125.6 374.3 124.6C373.9 124.1 373.2 123.6 372.4 123.3C371.6 122.9 370.6 122.9 369.6 122.9C368.6 123 367.7 123.1 366.9 122.9C366.1 122.7 365.3 122.5 364.7 122.5C363.3 122.6 362.5 122.7 362.5 122.8Z" fill="#EB996E"/>
<path d="M365.3 122.6C365.4 122.7 365.7 122.2 365.7 121.5C365.7 120.8 365.3 120.4 365.2 120.5C365.1 120.6 365.2 121 365.2 121.5C365.3 122.1 365.2 122.5 365.3 122.6Z" fill="#EB996E"/>
<path d="M360.6 126.8C360.6 126.9 363.3 127 366.6 126.3C367.4 126.1 368.2 125.9 368.8 126C369.4 126.1 369.9 126.5 370.2 126.9C370.8 127.7 370.9 128.4 371 128.4C371 128.4 371.1 127.7 370.5 126.7C370.2 126.2 369.7 125.7 368.9 125.5C368.1 125.3 367.3 125.6 366.5 125.7C363.3 126.5 360.6 126.6 360.6 126.8Z" fill="#EB996E"/>
<path d="M359.6 130.4C359.6 130.5 360.2 130.5 361.1 130.4C362 130.3 363.2 130 364.5 129.7C365.2 129.6 365.8 129.5 366.3 129.5C366.9 129.5 367.3 129.7 367.6 130C368.3 130.6 368.2 131.2 368.2 131.2C368.2 131.2 368.3 131.1 368.3 130.8C368.3 130.5 368.1 130.1 367.8 129.8C367.5 129.4 366.9 129.2 366.3 129.1C365.7 129 365 129.1 364.3 129.3C362.9 129.6 361.8 129.9 360.9 130.1C360.1 130.3 359.6 130.3 359.6 130.4Z" fill="#EB996E"/>
<path d="M362 133.3C361.9 133.4 362.6 134.1 363.8 134.1L363.6 133.9C363.6 134.1 363.6 134.3 363.7 134.5C363.9 135.9 364.1 137 364.3 137C364.4 137 364.4 135.8 364.2 134.4C364.2 134.2 364.1 134 364.1 133.8V133.6H363.9C362.7 133.6 362 133.1 362 133.3Z" fill="#EB996E"/>
<path d="M411.2 130.8C411.2 130.8 424.6 134 424.6 151.8C424.6 169.5 420.6 178.3 420.6 178.3L395.9 164.9L401.4 151.1L411.2 130.8Z" fill="#D4B2D6"/>
<path d="M420.5 178.4C420.5 178.4 420.3 178.3 420 178.2C419.6 178 419.2 177.8 418.6 177.5C417.3 176.8 415.5 175.9 413.3 174.7C408.8 172.3 402.6 169 395.7 165.2L395.5 165.1L395.6 164.9C396 163.8 396.5 162.6 396.9 161.4C398.5 157.3 400 153.4 401.3 149.8C402 148 402.6 146.3 403.3 144.8C403.9 143.2 404.5 141.8 405.3 140.5C406.7 138 408.3 136.2 409.8 135.3C410.5 134.9 411.1 134.7 411.5 134.6C411.7 134.6 411.9 134.5 412 134.5C412.1 134.5 412.2 134.5 412.2 134.5C412.2 134.6 411.3 134.6 409.9 135.4C408.6 136.2 407 138 405.7 140.6C405 141.9 404.4 143.3 403.8 144.9C403.2 146.5 402.6 148.2 401.9 150C400.5 153.6 399.1 157.5 397.5 161.6C397 162.8 396.6 164 396.2 165.1L396.1 164.8C403 168.6 409.1 172 413.6 174.4C415.8 175.6 417.5 176.6 418.8 177.3C419.4 177.6 419.8 177.9 420.2 178.1C420.4 178.3 420.5 178.4 420.5 178.4Z" fill="#263238"/>
<path d="M93.2 380.7L70 401.9L96.2 430.9C98.8 428.2 90.8 408.2 90.8 408.2L105.3 394.2L93.2 380.7Z" fill="#455A64"/>
<path d="M84 398C83.3 397.6 82.4 397.8 81.9 398.4C81.5 399 81.6 400 82.3 400.5C83 400.9 84.1 400.7 84.5 400.1C84.9 399.4 84.6 398.2 83.9 398" fill="white"/>
<path d="M70 401.9L72.4 399.7L96.6 428.5C96.6 428.5 97.2 430.3 96.1 431L70 401.9Z" fill="#263238"/>
<path d="M91.4 408.5C91.3 408.6 90.5 408 89.5 407.7C88.4 407.4 87.5 407.6 87.4 407.4C87.3 407.2 88.3 406.7 89.7 407.1C90.9 407.4 91.6 408.4 91.4 408.5Z" fill="white"/>
<path d="M92.9 412.7C92.8 412.9 92 412.5 91 412.5C90 412.5 89.2 413 89.1 412.8C89 412.7 89.6 411.8 90.9 411.8C92.1 411.8 93 412.5 92.9 412.7Z" fill="white"/>
<path d="M90.8 417.7C90.6 417.6 91 416.8 92.3 416.4C93.4 416.1 94.3 416.4 94.2 416.6C94.2 416.8 93.4 416.7 92.4 417C91.6 417.3 91 417.8 90.8 417.7Z" fill="white"/>
<path d="M94.6 405.1C94.4 405.2 94 404.3 93.2 403.6C92.4 402.8 91.6 402.5 91.7 402.3C91.7 402.1 92.8 402.3 93.7 403.2C94.6 404 94.8 405.1 94.6 405.1Z" fill="white"/>
<path d="M97.4 401.3C97.3 401.4 96.7 400.9 96.1 399.8C95.8 399.3 95.4 398.6 95.2 397.9C95.1 397.5 95 397.1 94.9 396.7C94.9 396.5 94.8 396.3 94.8 396C94.8 395.7 95.1 395.3 95.5 395.3C95.9 395.2 96.2 395.4 96.4 395.6C96.6 395.8 96.7 396 96.8 396.2C97 396.6 97.2 397 97.3 397.4C97.5 398.2 97.6 398.9 97.6 399.5C97.6 400.7 97.3 401.4 97.2 401.4C97.1 401.4 97.2 400.6 97.1 399.5C97 398.9 96.9 398.3 96.7 397.5C96.6 397.1 96.4 396.8 96.2 396.4C96 396 95.8 395.8 95.6 395.8C95.5 395.8 95.5 395.8 95.5 396C95.5 396.1 95.5 396.3 95.5 396.5C95.6 396.9 95.7 397.3 95.8 397.7C96 398.4 96.3 399.1 96.5 399.6C97 400.7 97.5 401.3 97.4 401.3Z" fill="white"/>
<path d="M97 401.3C96.9 401.3 97.2 400.5 98.1 399.6C98.5 399.2 99.1 398.7 99.9 398.4C100.3 398.2 100.7 398.1 101.1 398C101.5 397.9 102.1 397.8 102.7 398.3C103 398.6 103 399 102.8 399.3C102.7 399.6 102.5 399.7 102.4 399.9C102.1 400.3 101.8 400.6 101.4 400.8C100.7 401.3 100 401.5 99.3 401.5C98 401.6 97.3 401.2 97.4 401.1C97.4 401 98.1 401.2 99.3 401C99.8 400.9 100.5 400.7 101.1 400.2C101.4 400 101.7 399.7 101.9 399.4C102.2 399.1 102.3 398.7 102.2 398.6C102.1 398.5 101.6 398.4 101.3 398.5C100.9 398.6 100.5 398.7 100.2 398.9C99.5 399.2 98.9 399.6 98.5 399.9C97.5 400.7 97.1 401.4 97 401.3Z" fill="white"/>
<path d="M87.6 401.1L87.9 432.5L127 432.3C126.8 428.6 106.5 421.2 106.5 421.2L107.1 401.1H87.6Z" fill="#455A64"/>
<path d="M94.4 419.6C93.6 419.8 93.1 420.7 93.3 421.4C93.5 422.2 94.3 422.7 95.1 422.5C95.9 422.3 96.5 421.3 96.3 420.6C96 419.9 95 419.3 94.3 419.7" fill="white"/>
<path d="M87.9 432.6V429.2L125.5 430.5C125.5 430.5 127.2 431.3 127 432.5L87.9 432.6Z" fill="#263238"/>
<path d="M107.1 421C107.1 421.2 106.1 421.3 105.2 421.9C104.2 422.5 103.8 423.3 103.6 423.2C103.4 423.2 103.7 422 104.9 421.3C106 420.6 107.1 420.8 107.1 421Z" fill="white"/>
<path d="M111.2 422.7C111.2 422.9 110.4 423.2 109.8 424C109.1 424.8 109 425.7 108.8 425.7C108.6 425.7 108.5 424.6 109.3 423.6C110.1 422.6 111.2 422.5 111.2 422.7Z" fill="white"/>
<path d="M113.5 427.6C113.3 427.6 113.1 426.7 113.5 425.6C114 424.5 114.9 424.1 115 424.3C115.1 424.5 114.5 425 114.1 425.9C113.8 426.7 113.7 427.5 113.5 427.6Z" fill="white"/>
<path d="M106.7 416.4C106.6 416.6 105.7 416.3 104.7 416.4C103.6 416.5 102.8 416.8 102.7 416.7C102.6 416.6 103.4 415.9 104.7 415.8C105.9 415.6 106.8 416.2 106.7 416.4Z" fill="white"/>
<path d="M89.5 221.9C89.5 221.9 84 227.8 81.3 233.4C78.6 239 74.5 251 74.5 251C74.5 251 69.4 269.3 70.5 277.9C71.6 286.5 79.4 345.5 79.4 345.5C79.4 345.5 77.9 392.2 84.5 413L85.7 418.5L107.7 414.6L112.6 298.9L126 222.4L89.5 221.9Z" fill="#263238"/>
<path d="M117.7 226.8C117.6 226.8 117.6 226.1 116.9 225.5C116.5 225.2 115.9 225.1 115.4 225.3C114.9 225.5 114.4 226.1 114.4 226.8C114.4 227.5 114.9 228.1 115.4 228.2C116 228.4 116.5 228.3 116.9 228C117.6 227.5 117.6 226.8 117.7 226.8C117.7 226.8 117.8 227 117.8 227.3C117.8 227.6 117.6 228.1 117.2 228.4C116.8 228.8 116 229 115.3 228.8C114.6 228.6 113.9 227.8 113.9 226.9C113.9 226 114.5 225.2 115.2 225C115.9 224.7 116.7 224.9 117.1 225.3C117.5 225.7 117.7 226.1 117.8 226.4C117.8 226.6 117.7 226.8 117.7 226.8Z" fill="#455A64"/>
<path d="M143.3 237.8C143.3 237.8 151.4 311.1 152.5 323.7C153.7 336.3 107.9 403.5 107.9 403.5L88.6 380.7L118 326L108.1 271.5L121.1 222.3L141.4 222.5L143.3 237.8Z" fill="#263238"/>
<path d="M81.1 395.3C81.1 395.3 81.1 395.9 81.3 396.9C81.4 398 81.7 399.5 82.1 401.5C82.8 405.5 84 411.3 85.6 418.5V418.7H85.8C92 417.6 99.5 416.3 107.8 414.8H108V414.6C108.6 399.5 109.3 381.4 110.1 362C110.9 341.1 111.7 321.8 112.3 305.9C114 293.2 115.3 282.6 116.3 275.2C116.8 271.5 117.1 268.7 117.4 266.7C117.5 265.7 117.6 265 117.7 264.5C117.8 264 117.8 263.7 117.8 263.7C117.8 263.7 117.7 264 117.7 264.5C117.6 265 117.5 265.8 117.4 266.7C117.1 268.7 116.7 271.6 116.2 275.2C115.2 282.6 113.8 293.1 112.1 305.8C111.5 321.7 110.7 341 109.8 361.9C109 381.3 108.3 399.4 107.7 414.5L107.9 414.3C99.6 415.8 92.1 417.1 85.9 418.3L86.1 418.4C84.5 411.2 83.2 405.4 82.4 401.4C82 399.4 81.7 397.9 81.6 396.8C81.5 396.3 81.5 395.9 81.4 395.6C81.1 395.4 81.1 395.3 81.1 395.3Z" fill="#455A64"/>
<path d="M114.5 251.7C114.5 251.7 114.9 251.7 115.7 251.8C116.4 251.8 117.6 251.9 118.8 251.3C119.4 251 119.8 250.4 120 249.6C120.2 248.9 120.3 248 120.4 247.1C120.6 245.3 120.7 243.3 120.9 241.1C121.2 236.9 121.3 233 121.4 230.3C121.4 229 121.5 227.9 121.5 227C121.5 226.2 121.6 225.8 121.6 225.8C121.6 225.8 121.7 226.2 121.7 227C121.7 227.8 121.7 228.9 121.7 230.3C121.7 233.1 121.6 236.9 121.3 241.2C121.2 243.3 121 245.3 120.8 247.2C120.7 248.1 120.6 249 120.4 249.8C120.1 250.6 119.6 251.3 118.9 251.6C118.3 252 117.6 252.1 117 252.1C116.4 252.1 116 252.1 115.6 252C114.9 251.8 114.5 251.7 114.5 251.7Z" fill="#455A64"/>
<path d="M142.4 237.8C142.4 237.9 141.5 237.5 140.3 236.7C139.1 235.9 137.5 234.6 136 232.9C134.5 231.2 133.4 229.4 132.8 228.1C132.2 226.8 131.9 225.9 132 225.9C132.2 225.8 133.5 229.3 136.4 232.6C139.2 235.9 142.5 237.7 142.4 237.8Z" fill="#455A64"/>
<path d="M73 155.8L81.8 187.7L85.7 204.7C85.7 219.3 81.8 226 81.8 226L141.6 223C141.6 223 142.6 182.5 141.6 174.9L134.3 148.4L115.3 143.7L91.6 144.2L73 155.8Z" fill="#D4B2D6"/>
<path d="M155.1 200.6C155 200.6 154.9 200 154.9 199C154.9 198 155 196.6 155.6 195.2C156.1 193.8 156.9 192.6 157.6 191.9C158.3 191.2 158.8 190.8 158.8 190.8C158.9 190.9 157.1 192.6 156.1 195.3C155 198.2 155.3 200.6 155.1 200.6Z" fill="#263238"/>
<path d="M173.3 179.6L157.8 188.9L149 166.3C149 166.3 147.8 163.5 143.9 156.6C138.7 147.5 132.2 148 132.2 148L124.3 159.7L132.7 177.7C132.7 177.7 137.8 211 147.7 213.6C162.8 217.6 173.3 179.6 173.3 179.6Z" fill="#D4B2D6"/>
<g opacity="0.3">
<path d="M76.4 245.9C83.4 245.6 90.7 242.6 96.8 239C102.9 235.4 108.3 230.9 114.1 226.8C127.8 216.9 154.9 195.3 167.6 184.2L163.9 185L78.5 240.3L76.4 245.9Z" fill="black"/>
</g>
<path d="M141.7 214C141.7 214 141.7 213.8 141.7 213.4C141.7 213 141.7 212.4 141.7 211.7C141.7 210.2 141.7 208.1 141.7 205.5C141.7 200.2 141.8 193 141.8 185C141.8 183 141.9 181 141.7 179.2C141.6 177.3 141.3 175.5 141 173.9C140.3 170.5 138.6 167.8 137.3 165.6C136 163.3 134.9 161.5 134.3 160.2C134 159.5 133.8 159 133.6 158.7C133.5 158.3 133.4 158.1 133.4 158.1C133.4 158.1 133.5 158.3 133.7 158.6C133.9 158.9 134.1 159.5 134.5 160.1C135.2 161.4 136.3 163.2 137.7 165.4C139 167.6 140.8 170.4 141.5 173.8C141.9 175.5 142.2 177.3 142.3 179.2C142.4 181.1 142.4 183.1 142.4 185.1C142.3 193.1 142.2 200.3 142.1 205.6C142 208.2 142 210.3 142 211.8C142 212.5 142 213 141.9 213.5C141.8 213.8 141.8 214 141.7 214Z" fill="#263238"/>
<path d="M136 120.8C134.6 121 133.1 120.3 132.2 119.1C133.2 119.2 134.2 119.4 135.1 118.9C136 118.5 136.5 117.2 135.8 116.5C135.3 116 134.4 116 133.6 116C131.8 115.9 130.2 114.6 129.6 112.9C129 111 129.5 109 129.8 107.1C130.5 101.4 127.8 95.5 123.1 92.3L110.9 85.2C106.5 90.9 105.1 98.5 106 105.6C106.9 112.7 109.9 119.4 113.6 125.6C114.7 127.4 115.8 129.2 117.3 130.7C118.8 132.2 120.7 133.3 122.8 133.5C123.3 131.8 123 129.8 121.9 128.4C125.2 128.6 128.6 127.4 131 125.1C130.1 124.4 129.3 123.8 128.4 123.1C131 123.7 133.9 122.8 136 120.8Z" fill="#263238"/>
<path d="M88.9 100.9C89.1 95.8 92.3 91.5 97.2 90.1L112.5 85.7C119.1 84.8 123.8 92.9 124.5 99.5C125.2 106.9 125.7 114.8 125 120.3C123.6 131.5 115.1 133.2 115.1 133.2C115.1 133.2 115.2 138.3 115.3 141.5L115.2 166.4L92.6 142L88.9 100.9C88.9 100.9 88.9 101.2 88.9 100.9Z" fill="#AE7461"/>
<path d="M122.6 108.1C122.7 108.9 122.1 109.5 121.3 109.6C120.5 109.7 119.8 109.1 119.8 108.4C119.8 107.6 120.3 107 121.1 106.9C121.8 106.8 122.5 107.4 122.6 108.1Z" fill="#263238"/>
<path d="M123 104C122.8 104.2 121.7 103.4 120.2 103.5C118.7 103.5 117.6 104.4 117.4 104.2C117.3 104.1 117.5 103.8 118 103.4C118.5 103 119.3 102.7 120.2 102.6C121.2 102.6 122 102.9 122.5 103.3C122.9 103.6 123 103.9 123 104Z" fill="#263238"/>
<path d="M109.1 108.2C109.2 109 108.6 109.6 107.8 109.7C107 109.8 106.3 109.2 106.3 108.5C106.2 107.7 106.8 107.1 107.6 107C108.4 106.8 109 107.4 109.1 108.2Z" fill="#263238"/>
<path d="M108.3 104.4C108.1 104.6 107 103.8 105.5 103.9C104 103.9 102.9 104.8 102.7 104.6C102.6 104.5 102.8 104.2 103.3 103.8C103.8 103.4 104.6 103.1 105.5 103C106.5 103 107.3 103.3 107.8 103.7C108.3 104 108.4 104.4 108.3 104.4Z" fill="#263238"/>
<path d="M113.5 116.4C113.5 116.3 114.4 116.1 116 115.9C116.4 115.8 116.8 115.8 116.8 115.5C116.9 115.2 116.7 114.8 116.5 114.3C116.1 113.4 115.7 112.4 115.2 111.3C113.5 107.1 112.2 103.6 112.3 103.6C112.5 103.5 114 106.9 115.8 111.1C116.2 112.1 116.6 113.1 117 114.1C117.2 114.5 117.4 115 117.3 115.6C117.2 115.9 116.9 116.1 116.7 116.2C116.5 116.3 116.2 116.3 116 116.3C114.5 116.4 113.5 116.5 113.5 116.4Z" fill="#263238"/>
<path d="M100.2 129.8C100.2 129.8 104 137.4 115.2 136L115.1 133.4C115.1 133.3 107.8 134 100.2 129.8Z" fill="#6F4439"/>
<path d="M107.7 99.5C107.6 99.9 106 99.8 104.2 100C102.4 100.2 101 100.8 100.7 100.4C100.6 100.2 100.8 99.8 101.4 99.4C102 99 102.9 98.6 104 98.4C105.1 98.2 106.1 98.4 106.7 98.6C107.4 99 107.8 99.3 107.7 99.5Z" fill="#263238"/>
<path d="M122.3 99.3C122 99.7 121 99.3 119.7 99.3C118.4 99.3 117.4 99.6 117.1 99.2C117 99 117.1 98.7 117.6 98.3C118.1 98 118.8 97.7 119.7 97.7C120.6 97.7 121.3 98 121.8 98.3C122.3 98.8 122.4 99.2 122.3 99.3Z" fill="#263238"/>
<path d="M107.7 119.4C107.9 118.5 108.8 117.7 109.7 117.8C110.4 117.8 111 118.3 111.3 118.9C111.6 119.5 111.7 120.3 111.4 120.9V121C110.8 121.7 109.7 122 108.8 121.6C108.1 121.3 107.5 120.3 107.7 119.4Z" fill="#6F4439"/>
<path d="M112.6 121.1C112.6 120.9 111 121 109.8 119.7C108.6 118.5 108.6 116.8 108.4 116.8C108.3 116.8 108.1 117.2 108.2 117.9C108.2 118.6 108.5 119.6 109.3 120.3C110 121.1 111 121.3 111.6 121.3C112.3 121.4 112.7 121.2 112.6 121.1Z" fill="#263238"/>
<path d="M94.1 83.2C95.8 80.5 99.9 77.6 103.1 77.1C106.7 76.5 108.9 77.1 111.3 79.3C111.3 79.3 113.2 81.1 114.9 81.4C116.6 81.7 118.1 81.5 120.2 82.5C123 84 124.3 87.7 125.6 90.6C127.2 94.2 129.6 97.5 130.6 101.3C131.6 105.1 131.1 109.8 127.9 112.1C128.5 108.8 129 105.2 127.2 102.4C125.8 100.3 123.4 99.1 121.7 97.3C119.6 95.1 119.3 92.2 117.1 90.1C112 85.3 103.1 93.7 94.1 83.2Z" fill="#263238"/>
<path d="M126.2 98.4C124.9 95.2 123.5 92 121.2 89.4C118.4 86.1 114.4 84 110.1 83.4C105.8 82.9 101.4 83.9 97.9 86.4L97 86.5C99.7 90 104.1 92.1 108.5 92C111.1 92 114 91.3 116.2 92.7C118.4 94 119.2 96.7 121 98.5C122.2 99.7 123.8 100.5 125 101.7C126.2 103 126.9 104.8 127.5 106.5C128.2 103.8 127.2 101 126.2 98.4Z" fill="#263238"/>
<path d="M102.7 88.6L95.6 82.3C90 82 86.5 87.3 84.5 91.3C83.1 94.3 82.6 97.7 81.6 100.9C80.5 104.1 78.7 107.2 77.7 110.4C76.7 113.7 76.6 117.5 78.5 120.3C78.9 119.5 79.3 118.8 79.7 118C79.9 121.2 81.3 124.3 83.4 126.6C83.6 125.8 83.7 125 83.9 124.2C85.1 126.6 87 128.7 89.3 130L92.6 139C97.7 123.9 84.9 122.8 102.7 88.6Z" fill="#263238"/>
<path d="M101.7 89.9C101.3 91.9 100.8 94 100 95.9C99.2 97.8 98 99.6 96.3 100.8C93.9 102.6 90.7 102.9 87.8 103.6C84.9 104.3 81.7 105.7 80.5 108.4C81 104.3 81.8 100.3 83 96.4C84.3 92.1 86.2 87.7 89.8 85C93.1 82.5 97.7 81.8 101.5 83.2" fill="#263238"/>
<path d="M94.1 109.6C94 109.2 87 106.9 87.1 114.2C87.2 121.3 94.3 119.7 94.3 119.5C94.3 119.3 94.1 109.6 94.1 109.6Z" fill="#AE7461"/>
<path d="M92.1 116.9C92.1 116.9 92 117 91.8 117.1C91.6 117.2 91.2 117.3 90.9 117.1C90.1 116.8 89.5 115.7 89.4 114.4C89.4 113.8 89.5 113.1 89.7 112.6C89.9 112.1 90.2 111.7 90.6 111.6C91 111.5 91.2 111.7 91.3 111.9C91.4 112.1 91.4 112.2 91.4 112.3C91.4 112.3 91.5 112.2 91.5 111.9C91.5 111.8 91.4 111.6 91.2 111.5C91 111.4 90.8 111.3 90.5 111.3C90 111.3 89.5 111.9 89.2 112.4C88.9 113 88.8 113.7 88.8 114.4C88.9 115.8 89.6 117.2 90.7 117.4C91.2 117.5 91.6 117.4 91.8 117.2C92.1 117.1 92.1 116.9 92.1 116.9Z" fill="#6F4439"/>
<path d="M91.3 118.2C90.6 118.1 89.9 118.6 89.7 119.3C89.5 120 90 120.8 90.7 120.9C91.4 121.1 92.2 120.7 92.4 120C92.6 119.3 92.3 118.5 91.6 118.2" fill="white"/>
<path d="M91.7 118.3C91.7 118.3 92.2 118.5 92.4 119.2C92.5 119.5 92.5 120 92.2 120.3C91.9 120.6 91.4 120.9 90.9 120.7C90.4 120.6 90.1 120.1 90 119.7C89.9 119.3 90.1 118.9 90.4 118.6C90.9 118.1 91.5 118.2 91.5 118.2C91.5 118.2 91.4 118.1 91.2 118.1C91 118.1 90.6 118.2 90.3 118.4C90 118.6 89.7 119.1 89.8 119.7C89.9 120.2 90.3 120.8 90.9 121C91.5 121.2 92.2 120.9 92.5 120.5C92.9 120.1 92.9 119.5 92.7 119.1C92.6 118.7 92.3 118.5 92.1 118.4C91.8 118.3 91.7 118.2 91.7 118.3Z" fill="#263238"/>
<path d="M102.1 90.4C102 90.5 101.3 88.1 99.3 85.8C97.4 83.5 95.1 82.6 95.1 82.4C95.1 82.3 95.7 82.5 96.6 83C97.5 83.5 98.6 84.3 99.6 85.5C100.6 86.7 101.3 87.9 101.6 88.8C102.1 89.7 102.2 90.4 102.1 90.4Z" fill="#455A64"/>
<path d="M280.4 112.6C280.4 112.6 280.5 112.9 280.6 113.5C280.7 114.1 280.9 114.9 281.1 116C281.5 118.2 281.8 121.4 281.8 125.3C281.8 129.3 281.5 134 280.4 139.1C279.9 141.7 279.1 144.3 278.2 147C277.2 149.7 276.1 152.4 274.6 155.1C273.1 157.7 271.4 160.2 269.7 162.4C267.9 164.6 266 166.6 264.1 168.4C260.2 171.9 256.3 174.6 252.8 176.4C249.3 178.3 246.3 179.4 244.1 180C243 180.3 242.2 180.5 241.6 180.6C241 180.7 240.7 180.8 240.7 180.8C240.7 180.8 241 180.7 241.5 180.5C242.1 180.3 242.9 180.1 243.9 179.8C246 179.1 249 178 252.4 176.1C255.9 174.2 259.7 171.5 263.6 168C265.5 166.2 267.4 164.2 269.2 162C271 159.8 272.6 157.4 274.1 154.7C275.6 152.1 276.7 149.4 277.7 146.7C278.7 144 279.4 141.4 280 138.9C281.1 133.8 281.5 129.1 281.5 125.2C281.5 121.3 281.2 118.1 280.9 115.9C280.8 114.8 280.6 114 280.5 113.4C280.5 112.9 280.4 112.6 280.4 112.6Z" fill="#263238"/>
<path d="M285.7 101.9C277.3 87.1 263.7 76.4 247.3 71.9C230.9 67.4 213.7 69.4 198.9 77.8C187.2 84.4 178.1 94.3 172.5 106.4C163.9 125 164.7 146.8 174.7 164.6C183.1 179.4 196.7 190.1 213.1 194.6C218.8 196.2 224.5 197 230.3 197C241.1 197 251.8 194.2 261.5 188.8C276.3 180.5 287 166.8 291.5 150.4C296.1 133.9 294 116.7 285.7 101.9ZM245.7 77.7C260.5 81.8 272.9 91.5 280.4 104.9C289.5 121 290.3 140.7 282.4 157.6C277.3 168.6 269 177.5 258.5 183.5C245.1 191.1 229.5 193 214.7 188.8C199.9 184.7 187.5 175 179.9 161.6C172.3 148.2 170.4 132.6 174.6 117.8C178.7 103 188.4 90.6 201.8 83C210.6 78.1 220.3 75.5 230.1 75.5C235.3 75.5 240.5 76.2 245.7 77.7Z" fill="#263238"/>
<path d="M181.3 153.3C181.3 153.3 181.2 153.1 181 152.8C180.8 152.4 180.6 152 180.4 151.4C180.1 150.8 179.8 150.1 179.5 149.2C179.2 148.3 178.8 147.3 178.5 146.2C178.3 145.6 178.2 145 178 144.4C177.8 143.8 177.7 143.1 177.6 142.4C177.3 141 177.1 139.6 176.9 138C176.6 134.9 176.5 131.4 176.8 127.8C177.1 124.2 177.8 120.8 178.7 117.8C179.2 116.3 179.6 114.9 180.2 113.6C180.5 113 180.7 112.3 181 111.7C181.3 111.1 181.5 110.6 181.8 110C182.3 108.9 182.9 108 183.3 107.2C183.8 106.4 184.2 105.7 184.6 105.1C185 104.6 185.2 104.2 185.5 103.8C185.7 103.5 185.8 103.4 185.8 103.4C185.8 103.4 185.7 103.6 185.6 103.9C185.4 104.2 185.1 104.7 184.8 105.2C184.4 105.8 184 106.4 183.6 107.3C183.2 108.1 182.6 109.1 182.2 110.1C182 110.6 181.7 111.2 181.4 111.8C181.1 112.4 180.9 113 180.7 113.7C180.2 115 179.8 116.4 179.3 117.9C178.5 120.9 177.8 124.3 177.4 127.9C177.1 131.5 177.2 134.9 177.5 138C177.7 139.5 177.9 141 178.2 142.4C178.3 143.1 178.4 143.7 178.6 144.4C178.8 145 178.9 145.6 179.1 146.2C179.4 147.4 179.7 148.4 180 149.2C180.3 150.1 180.6 150.9 180.8 151.5C181 152.1 181.2 152.5 181.3 152.9C181.3 153.1 181.3 153.3 181.3 153.3Z" fill="#263238"/>
<path d="M190 164.2C189.9 164.3 188.9 163.9 187.9 163C186.9 162.1 186.4 161.1 186.5 161C186.6 160.9 187.3 161.7 188.2 162.6C189.2 163.5 190.1 164.1 190 164.2Z" fill="#263238"/>
<path d="M172.5 101.4C177.8 89.9 186.7 79.9 198.5 73.2C213.1 65 230 63 246.2 67.5C262.4 72 275.8 82.5 284 97.1C301 127.2 290.3 165.6 260.2 182.6C245.6 190.8 228.7 192.9 212.5 188.4C196.3 183.9 182.9 173.4 174.7 158.8C164.4 140.5 164.2 119.2 172.5 101.4ZM282.4 152.6C290.1 136.1 290 116.2 280.3 99.1C272.6 85.5 260.1 75.7 245 71.5C229.9 67.3 214.1 69.2 200.5 76.9C186.9 84.6 177.1 97.1 172.9 112.2C168.7 127.3 170.6 143.1 178.3 156.7C186 170.3 198.5 180.1 213.6 184.3C228.7 188.5 244.5 186.6 258.1 178.9C269.2 172.7 277.4 163.4 282.4 152.6Z" fill="#455A64"/>
<path d="M229.4 191.7C223.7 191.7 217.9 190.9 212.2 189.3C195.8 184.7 182.1 174 173.8 159.2C163.7 141.4 162.9 119.6 171.5 100.9C177.1 88.8 186.3 78.9 198 72.3C212.8 63.9 230 61.8 246.5 66.4C262.9 71 276.6 81.7 284.9 96.5C302.2 127.1 291.3 166.1 260.7 183.4C251 188.9 240.3 191.7 229.4 191.7ZM229.3 66.1C218.8 66.1 208.4 68.8 199 74.1C187.7 80.5 178.8 90.1 173.4 101.8C165 119.9 165.8 141 175.6 158.2C183.7 172.6 196.9 182.9 212.8 187.3C228.7 191.7 245.4 189.7 259.7 181.6C289.4 164.9 299.9 127.1 283.1 97.4C275 83 261.8 72.7 245.9 68.3C240.4 66.9 234.8 66.1 229.3 66.1ZM229.4 187.5C224 187.5 218.6 186.8 213.3 185.3C198 181 185.2 171 177.4 157.2C169.6 143.3 167.6 127.3 171.9 111.9C176.2 96.6 186.2 83.8 200 76C213.9 68.2 229.9 66.2 245.3 70.5C260.6 74.8 273.4 84.8 281.2 98.6C290.6 115.3 291.4 135.6 283.3 153C278 164.3 269.5 173.6 258.6 179.7C249.6 184.9 239.6 187.5 229.4 187.5ZM229.3 70.3C219.5 70.3 209.8 72.8 201.1 77.8C187.7 85.4 178.1 97.7 173.9 112.5C169.8 127.3 171.7 142.8 179.2 156.2C186.8 169.6 199.1 179.2 213.9 183.4C228.7 187.5 244.2 185.6 257.6 178.1C268.1 172.2 276.4 163.2 281.5 152.3C289.3 135.5 288.6 115.8 279.5 99.7C271.9 86.3 259.6 76.7 244.8 72.5C239.7 71 234.4 70.3 229.3 70.3Z" fill="#455A64"/>
<path d="M54.1 246L53 244.2C50.6 240.4 53.3 234.3 56 232.6L174.4 157.9C175 157.5 175.9 157.9 176.5 158.8L184.4 171.4C184.9 172.3 184.9 173.3 184.3 173.6L66.6 247.9C63.9 249.6 56.5 249.9 54.1 246Z" fill="#455A64"/>
<path d="M164.5 186.6L168.1 182.8C168.1 182.8 167.7 174.1 169.2 172L170 170.7C170 170.7 169.2 166.5 171.5 165.5C172.1 163.9 173 163.3 174.1 164.1C174.1 164.1 173.5 160.9 176.4 160.5C179.4 160.1 180.2 173.5 180.2 173.5C180.2 173.5 181.7 179.5 178.3 179.5C178.3 179.5 176.4 181.6 174.3 181.8C174.3 181.8 173.7 185.4 170.7 185.2L164.5 186.6Z" fill="#AE7461"/>
<path d="M173.7 180.4C173.7 180.4 173.9 180.5 174 180.8C174.2 181.1 174.3 181.6 174.2 182.3C174.1 182.9 173.7 183.7 173.1 184.2C172.5 184.8 171.6 185.2 170.7 185.5C168.9 186.1 167.2 186.4 166 186.4C164.8 186.5 164 186.4 164 186.3C164 186.1 167.1 186.3 170.5 185C171.4 184.7 172.1 184.3 172.7 183.8C173.3 183.3 173.6 182.7 173.8 182.1C174.2 181.1 173.7 180.4 173.7 180.4Z" fill="#6F4439"/>
<path d="M176.4 175.6C176.3 175.6 176.2 172.9 175.6 169.7C175 166.5 174 164 174.1 163.9C174.2 163.9 174.5 164.5 174.9 165.5C175.3 166.5 175.8 168 176.1 169.6C176.4 171.2 176.5 172.8 176.6 173.9C176.5 174.9 176.4 175.6 176.4 175.6Z" fill="#6F4439"/>
<path d="M173.8 177.1C173.7 177.1 173.4 174.5 172.7 171.3C172 168.1 171.2 165.6 171.3 165.6C171.4 165.6 172.4 168 173.1 171.2C173.9 174.4 173.9 177.1 173.8 177.1Z" fill="#6F4439"/>
<path d="M178.5 177C178.6 176.9 179.1 177.8 178.8 178.8C178.5 179.9 177.7 180.3 177.7 180.2C177.6 180.1 178.2 179.5 178.4 178.6C178.6 177.8 178.4 177 178.5 177Z" fill="#6F4439"/>
<path d="M170.3 177.6C170.2 177.6 170.1 176.1 170 174.3C169.9 172.5 169.7 171 169.9 171C170 171 170.4 172.4 170.5 174.3C170.6 176.1 170.4 177.6 170.3 177.6Z" fill="#6F4439"/>
<path d="M91.3 208.8C91.3 208.8 92.4 207 94.8 205.6C97.2 204.2 101.9 203.7 102.8 202.1C103.7 200.5 105.1 202.1 104.4 204.2C103.9 205.5 100.5 208.5 100.5 208.5C100.5 208.5 103.6 209.9 106 209.1C108.4 208.3 116.4 207.4 117 208.6C117.7 210 115.6 210 114.7 210.3C114 210.5 108.5 212.1 108.5 212.1C108.5 212.1 118.6 213.6 119.7 214.3C121 215.1 119.4 216 118.7 215.9C118.3 215.8 116.3 217.1 114.9 218C113.9 218.6 112.8 218.9 111.6 218.7L109.3 218.3L116.2 220.3C116.2 220.3 117.2 221.6 115.4 221.9C114.6 222 92.6 221.2 90.9 221C88 220.6 83.3 220.5 83.3 220.5L86.9 207.4L91.3 208.8Z" fill="#AE7461"/>
<path d="M118.7 216.1C118.7 216.2 116.5 216.7 113.7 216.7C110.9 216.7 108.7 216.2 108.7 216.1C108.7 216 111 216.2 113.7 216.2C116.5 216.2 118.7 216 118.7 216.1Z" fill="#6F4439"/>
<path d="M73.9 202.1L84 181.4L75.1 154.5C75.1 154.5 71.6 156 68.4 160.3C65.2 164.6 61.8 173.7 61.8 173.7C61.8 173.7 50.8 198.8 49 202.5C47.2 206.2 44.3 213.2 49 217.1C53.7 221 85.3 221.1 85.3 221.1L88.6 207.1L73.9 202.1Z" fill="#D4B2D6"/>
<path d="M75.1 168.5C75.2 168.5 77.6 175.5 80.4 184.2C83.2 192.9 85.3 200 85.2 200C85.1 200 82.7 193 79.9 184.3C77.1 175.7 75 168.6 75.1 168.5Z" fill="#263238"/>
<path d="M88.7 207.2C88.7 207.2 88.3 207.1 87.5 206.9C86.7 206.7 85.6 206.4 84.4 206C81.8 205.2 78.1 204.2 74.1 203.1C70.1 202.1 66.3 201.3 63.6 201.3C60.9 201.3 59.3 202.3 59.3 202.1C59.3 202.1 59.6 201.8 60.4 201.5C61.1 201.2 62.2 200.9 63.6 200.8C66.4 200.6 70.2 201.4 74.2 202.4C78.3 203.5 81.9 204.6 84.5 205.5C85.8 205.9 86.9 206.3 87.6 206.5C88.3 207 88.7 207.1 88.7 207.2Z" fill="#263238"/>
<g opacity="0.3">
<path d="M77.4 175.4C77.1 181 77.6 187.4 78.3 193L81.1 187.3C80.6 184.4 78.5 178.6 77.5 175.8" fill="black"/>
</g>
<path d="M253.8 107.3H240.7V154.4H253.8V107.3Z" fill="#D4B2D6"/>
<path d="M212.8 135H199.7V156.4H212.8V135Z" fill="#D4B2D6"/>
<path d="M233 123.4H219.9V156.4H233V123.4Z" fill="#D4B2D6"/>
<path d="M248.9 91.7C248.9 91.7 248.8 91.9 248.6 92.1C248.3 92.4 248 92.8 247.6 93.2C246.7 94.2 245.5 95.7 243.9 97.4C240.7 101 236.2 106 231.1 111.8L231 112L230.8 111.9C228.3 110.3 225.6 108.5 222.8 106.7H223.1C223 106.8 222.9 106.9 222.8 107.1C216.2 114.9 210.2 121.9 205.8 127L205.7 127.1L205.6 127C202.9 125 200.8 123.4 199.2 122.3C198.5 121.8 197.9 121.3 197.5 121C197.1 120.7 196.9 120.5 196.9 120.5C196.9 120.5 197.1 120.6 197.5 120.9C197.9 121.2 198.5 121.6 199.3 122.1C200.9 123.2 203.1 124.8 205.8 126.7H205.6C209.9 121.5 215.9 114.5 222.4 106.7C222.5 106.6 222.6 106.5 222.7 106.3L222.8 106.1L223 106.2C225.8 108 228.5 109.8 231 111.5H230.7C235.9 105.7 240.4 100.8 243.7 97.2C245.3 95.5 246.6 94.1 247.5 93.1C247.9 92.7 248.3 92.3 248.5 92C248.8 91.8 248.9 91.7 248.9 91.7Z" fill="#263238"/>
<path d="M249.3 101.6C249.2 101.6 249.2 100.5 249.1 98.6C249.1 96.7 249 94.2 249 91.3L249.3 91.6C249.2 91.6 249.1 91.6 249 91.6C246.1 92.1 243.5 92.5 241.6 92.7C239.7 93 238.5 93.1 238.5 93C238.5 92.9 239.6 92.7 241.5 92.3C243.4 91.9 246 91.5 248.9 91C249 91 249.1 91 249.2 91H249.5V91.3C249.5 94.2 249.5 96.7 249.4 98.6C249.4 100.5 249.4 101.6 249.3 101.6Z" fill="#263238"/>
</g>
<defs>
<clipPath id="clip0_1_2905">
<rect width="474.9" height="447.5" fill="white"/>
</clipPath>
</defs>
</svg>
